999
DXF file: acrylic_cab_print.dxf
999
Pro/ENGINEER 2015080 by Parametric Technology Corporation
  0
SECTION
  2
HEADER
  9
$ACADVER
  1
AC1021
  9
$DWGCODEPAGE
  3
ANSI_1252
  9
$EXTMAX
 10
34.0
 20
22.0
 30
0.0
  9
$EXTMIN
 10
0.0
 20
0.0
 30
0.0
  9
$LIMMIN
 10
0.0
 20
0.0
  9
$LIMMAX
 10
34.0
 20
22.0
  9
$VIEWCTR
 10
17.0
 20
11.0
  9
$VIEWSIZE
 40
22.0
  9
$CLAYER
  8
0
  9
$LTSCALE
 40
1.87
  9
$CELTYPE
  6
BYLAYER
  9
$DIMSCALE
 40
1.0
  9
$DIMASZ
 40
0.1875
  9
$DIMEXO
 40
0.0625
  9
$DIMDLI
 40
1.292
  9
$DIMEXE
 40
0.125
  9
$DIMCEN
 40
0.306
  9
$DIMLFAC
 40
1.0
  9
$DIMBLK
  1
_CLOSED
  9
$DIMALT
 70
0
  9
$DIMALTF
 40
25.4
  9
$DIMTXT
 40
0.15625
  9
$DIMTOL
 70
0
  9
$DIMLIM
 70
0
  9
$DIMTFAC
 40
1.0
  9
$DIMGAP
 40
0.09
  9
$DIMDSEP
 70
46
  9
$AUNITS
 70
0
  9
$PDMODE
 70
3
  9
$PDSIZE
 40
0.3125
  9
$HANDSEED
  5
41C
  9
$TILEMODE
 70
1
  9
$MEASUREMENT
 70
0
  9
$INSUNITS
 70
1
  0
ENDSEC
  0
SECTION
  2
CLASSES
  0
CLASS
  1
ACDBDICTIONARYWDFLT
  2
AcDbDictionaryWithDefault
  3
AutoCAD 2000
 90
0
 91
1
280
0
281
0
  0
CLASS
  1
ACDBPLACEHOLDER
  2
AcDbPlaceHolder
  3
AutoCAD 2000
 90
0
 91
1
280
0
281
0
  0
CLASS
  1
LAYOUT
  2
AcDbLayout
  3
AutoCAD 2000
 90
0
 91
0
280
0
281
0
  0
ENDSEC
  0
SECTION
  2
TABLES
  0
TABLE
  2
VPORT
  5
8
100
AcDbSymbolTable
 70
2
  0
VPORT
  5
1F4
100
AcDbSymbolTableRecord
100
AcDbViewportTableRecord
  2
*ACTIVE
 70
0
 10
0.0
 20
0.0
 11
1.0
 21
1.0
 12
17.0
 22
11.0
 13
0.0
 23
0.0
 14
1.0
 24
1.0
 15
0.0
 25
0.0
 16
0.0
 26
0.0
 36
1.0
 17
0.0
 27
0.0
 37
0.0
 40
22.0
 41
1.5454545455
 42
50.0
 43
0.0
 44
0.0
 50
0.0
 51
0.0
 71
0
 72
100
 73
1
 74
1
 75
0
 76
0
 77
0
 78
0
  0
ENDTAB
  0
TABLE
  2
LTYPE
  5
5
100
AcDbSymbolTable
 70
6
  0
LTYPE
  5
14
100
AcDbSymbolTableRecord
100
AcDbLinetypeTableRecord
  2
BYBLOCK
 70
0
  3

 72
65
 73
0
 40
0.0
  0
LTYPE
  5
15
100
AcDbSymbolTableRecord
100
AcDbLinetypeTableRecord
  2
BYLAYER
 70
0
  3

 72
65
 73
0
 40
0.0
  0
LTYPE
  5
16
100
AcDbSymbolTableRecord
100
AcDbLinetypeTableRecord
  2
CONTINUOUS
 70
64
  3
Solid line
 72
65
 73
0
 40
0.0
  0
LTYPE
  5
1F5
100
AcDbSymbolTableRecord
100
AcDbLinetypeTableRecord
  2
CENTER
 70
64
  3
____ _ ____ _ ____ _ ____ _ ____ _ ____ _ ____
 72
65
 73
4
 40
0.6
 49
0.375
 74
0
 49
-0.075
 74
0
 49
0.075
 74
0
 49
-0.075
 74
0
  0
LTYPE
  5
1F6
100
AcDbSymbolTableRecord
100
AcDbLinetypeTableRecord
  2
HIDDEN
 70
64
  3
- - - - - - - - - - - - - - - - - - - -
 72
65
 73
2
 40
0.2
 49
0.1
 74
0
 49
-0.1
 74
0
  0
LTYPE
  5
1F7
100
AcDbSymbolTableRecord
100
AcDbLinetypeTableRecord
  2
PHANTOM
 70
64
  3
_____ _ _ _____ _ _ _____ _ _ _____
 72
65
 73
6
 40
0.8
 49
0.45
 74
0
 49
-0.05
 74
0
 49
0.1
 74
0
 49
-0.05
 74
0
 49
0.1
 74
0
 49
-0.05
 74
0
  0
LTYPE
  5
1F8
100
AcDbSymbolTableRecord
100
AcDbLinetypeTableRecord
  2
DOT
 70
64
  3
. . . . . . . . . . . . . . . . . . . .
 72
65
 73
2
 40
0.2
 49
0.1
 74
0
 49
-0.1
 74
0
  0
LTYPE
  5
1F9
100
AcDbSymbolTableRecord
100
AcDbLinetypeTableRecord
  2
DASHED
 70
64
  3
- - - - - - - - - - - - - - - - - - - -
 72
65
 73
2
 40
0.2
 49
0.1
 74
0
 49
-0.1
 74
0
  0
ENDTAB
  0
TABLE
  2
LAYER
  5
2
100
AcDbSymbolTable
 70
36
  0
LAYER
  5
10
100
AcDbSymbolTableRecord
100
AcDbLayerTableRecord
  2
0
 70
0
 62
7
  6
CONTINUOUS
370
-3
390
F
  0
LAYER
  5
1FA
100
AcDbSymbolTableRecord
100
AcDbLayerTableRecord
  2
DEFAULT_1
 70
0
 62
7
  6
CENTER
370
-3
390
F
  0
LAYER
  5
1FB
100
AcDbSymbolTableRecord
100
AcDbLayerTableRecord
  2
DEFAULT_2
 70
0
 62
8
  6
HIDDEN
370
-3
390
F
  0
LAYER
  5
1FC
100
AcDbSymbolTableRecord
100
AcDbLayerTableRecord
  2
DEFAULT_3
 70
0
 62
7
  6
PHANTOM
370
-3
390
F
  0
LAYER
  5
1FD
100
AcDbSymbolTableRecord
100
AcDbLayerTableRecord
  2
01_ALL_DTM_PLN
 70
0
 62
7
  6
CONTINUOUS
370
-3
390
F
  0
LAYER
  5
1FE
100
AcDbSymbolTableRecord
100
AcDbLayerTableRecord
  2
01__ASM_ALL_DTM_PLN
 70
0
 62
7
  6
CONTINUOUS
370
-3
390
F
  0
LAYER
  5
1FF
100
AcDbSymbolTableRecord
100
AcDbLayerTableRecord
  2
01__ASM_DEF_DTM_PLN
 70
0
 62
7
  6
CONTINUOUS
370
-3
390
F
  0
LAYER
  5
200
100
AcDbSymbolTableRecord
100
AcDbLayerTableRecord
  2
01___PRT_ALL_DTM_PLN
 70
0
 62
7
  6
CONTINUOUS
370
-3
390
F
  0
LAYER
  5
201
100
AcDbSymbolTableRecord
100
AcDbLayerTableRecord
  2
01___PRT_DEF_DTM_PLN
 70
0
 62
7
  6
CONTINUOUS
370
-3
390
F
  0
LAYER
  5
202
100
AcDbSymbolTableRecord
100
AcDbLayerTableRecord
  2
02_ALL_AXES
 70
0
 62
7
  6
CONTINUOUS
370
-3
390
F
  0
LAYER
  5
203
100
AcDbSymbolTableRecord
100
AcDbLayerTableRecord
  2
02__ASM_ALL_AXES
 70
0
 62
7
  6
CONTINUOUS
370
-3
390
F
  0
LAYER
  5
204
100
AcDbSymbolTableRecord
100
AcDbLayerTableRecord
  2
02___PRT_ALL_AXES
 70
0
 62
7
  6
CONTINUOUS
370
-3
390
F
  0
LAYER
  5
205
100
AcDbSymbolTableRecord
100
AcDbLayerTableRecord
  2
03_ALL_CURVES
 70
0
 62
7
  6
CONTINUOUS
370
-3
390
F
  0
LAYER
  5
206
100
AcDbSymbolTableRecord
100
AcDbLayerTableRecord
  2
03__ASM_ALL_CURVES
 70
0
 62
7
  6
CONTINUOUS
370
-3
390
F
  0
LAYER
  5
207
100
AcDbSymbolTableRecord
100
AcDbLayerTableRecord
  2
03___PRT_ALL_CURVES
 70
0
 62
7
  6
CONTINUOUS
370
-3
390
F
  0
LAYER
  5
208
100
AcDbSymbolTableRecord
100
AcDbLayerTableRecord
  2
04_ALL_DTM_PNT
 70
0
 62
7
  6
CONTINUOUS
370
-3
390
F
  0
LAYER
  5
209
100
AcDbSymbolTableRecord
100
AcDbLayerTableRecord
  2
04__ASM_ALL_DTM_PNT
 70
0
 62
7
  6
CONTINUOUS
370
-3
390
F
  0
LAYER
  5
20A
100
AcDbSymbolTableRecord
100
AcDbLayerTableRecord
  2
04___PRT_ALL_DTM_PNT
 70
0
 62
7
  6
CONTINUOUS
370
-3
390
F
  0
LAYER
  5
20B
100
AcDbSymbolTableRecord
100
AcDbLayerTableRecord
  2
05_ALL_DTM_CSYS
 70
0
 62
7
  6
CONTINUOUS
370
-3
390
F
  0
LAYER
  5
20C
100
AcDbSymbolTableRecord
100
AcDbLayerTableRecord
  2
05__ASM_ALL_DTM_CSYS
 70
0
 62
7
  6
CONTINUOUS
370
-3
390
F
  0
LAYER
  5
20D
100
AcDbSymbolTableRecord
100
AcDbLayerTableRecord
  2
05__ASM_DEF_DTM_CSYS
 70
0
 62
7
  6
CONTINUOUS
370
-3
390
F
  0
LAYER
  5
20E
100
AcDbSymbolTableRecord
100
AcDbLayerTableRecord
  2
05___PRT_ALL_DTM_CSYS
 70
0
 62
7
  6
CONTINUOUS
370
-3
390
F
  0
LAYER
  5
20F
100
AcDbSymbolTableRecord
100
AcDbLayerTableRecord
  2
05___PRT_DEF_DTM_CSYS
 70
0
 62
7
  6
CONTINUOUS
370
-3
390
F
  0
LAYER
  5
210
100
AcDbSymbolTableRecord
100
AcDbLayerTableRecord
  2
06_ALL_SURFS
 70
0
 62
7
  6
CONTINUOUS
370
-3
390
F
  0
LAYER
  5
211
100
AcDbSymbolTableRecord
100
AcDbLayerTableRecord
  2
06__ASM_ALL_SURFS
 70
0
 62
7
  6
CONTINUOUS
370
-3
390
F
  0
LAYER
  5
212
100
AcDbSymbolTableRecord
100
AcDbLayerTableRecord
  2
06___PRT_ALL_SURFS
 70
0
 62
7
  6
CONTINUOUS
370
-3
390
F
  0
LAYER
  5
213
100
AcDbSymbolTableRecord
100
AcDbLayerTableRecord
  2
07__ASM_ALL_SKELETONS
 70
0
 62
7
  6
CONTINUOUS
370
-3
390
F
  0
ENDTAB
  0
TABLE
  2
STYLE
  5
3
100
AcDbSymbolTable
 70
1
  0
STYLE
  5
11
100
AcDbSymbolTableRecord
100
AcDbTextStyleTableRecord
  2
STANDARD
 70
0
 40
0.0
 41
0.8
 50
0.0
 71
0
 42
0.2
  3
txt
  4

  0
STYLE
  5
214
100
AcDbSymbolTableRecord
100
AcDbTextStyleTableRecord
  2
TEXTSTYLE_1
 70
0
 40
0.0
 41
0.8
 50
0.0
 71
0
 42
0.2
  3
gdt
  4

  0
ENDTAB
  0
TABLE
  2
VIEW
  5
6
100
AcDbSymbolTable
 70
0
  0
ENDTAB
  0
TABLE
  2
UCS
  5
7
100
AcDbSymbolTable
 70
0
  0
ENDTAB
  0
TABLE
  2
APPID
  5
9
100
AcDbSymbolTable
 70
1
  0
APPID
  5
215
100
AcDbSymbolTableRecord
100
AcDbRegAppTableRecord
  2
ACAD
 70
0
  0
ENDTAB
  0
TABLE
  2
BLOCK_RECORD
  5
1
100
AcDbSymbolTable
 70
0
  0
BLOCK_RECORD
  5
216
100
AcDbSymbolTableRecord
100
AcDbBlockTableRecord
  2
*Model_Space
  0
BLOCK_RECORD
  5
217
100
AcDbSymbolTableRecord
100
AcDbBlockTableRecord
  2
*Paper_Space
  0
ENDTAB
  0
TABLE
  2
DIMSTYLE
  5
A
100
AcDbSymbolTable
 70
1
100
AcDbDimStyleTable
 71
0
  0
DIMSTYLE
105
218
100
AcDbSymbolTableRecord
100
AcDbDimStyleTableRecord
  2
STANDARD
 70
0
  3

  4

 40
1.0
 41
0.1875
 42
0.0625
 43
0.38
 44
0.125
 45
0.0
 46
0.0
 47
0.01
 48
0.01
140
0.15625
141
0.09
142
0.0
143
25.4
144
1.0
145
0.0
146
1.0
147
0.09
 71
0.0
 72
0.0
 73
1
 74
1
 75
0
 76
0
 77
0
 78
4
170
0
171
2
172
0
173
0
174
0
175
0
176
0
177
0
178
0
270
2
271
2
272
2
273
2
274
2
275
0
280
0
281
0
282
0
283
1
284
4
285
0
286
0
287
3
288
0
340
11
278
46
  0
ENDTAB
  0
ENDSEC
  0
SECTION
  2
BLOCKS
  0
BLOCK
  5
20
100
AcDbEntity
  8
0
100
AcDbBlockBegin
  2
*Model_Space
 70
0
 10
0.0
 20
0.0
 30
0.0
  3
*Model_Space
  1

  0
ENDBLK
  5
21
100
AcDbEntity
  8
0
100
AcDbBlockEnd
  0
BLOCK
  5
1C
100
AcDbEntity
  8
0
100
AcDbBlockBegin
  2
*Paper_Space
 70
0
 10
0.0
 20
0.0
 30
0.0
  3
*Paper_Space
  1

  0
ENDBLK
  5
1D
100
AcDbEntity
  8
0
100
AcDbBlockEnd
  0
ENDSEC
  0
SECTION
  2
ENTITIES
  0
MTEXT
  5
219
100
AcDbEntity
  8
0
100
AcDbMText
 62
2
  6
CONTINUOUS
  7
STANDARD
 71
3
 72
1
 10
16.8933550186
 20
5.2684874535
 30
0.0
 11
1.0
 21
0.0
 31
0.0
 44
0.9
  1
SCALE  1.000
 40
0.15625
 41
1.5
  0
LINE
  5
21A
100
AcDbEntity
  8
0
100
AcDbLine
 62
7
  6
CONTINUOUS
 10
0.0
 20
0.0
 11
0.0
 21
22.0
  0
LINE
  5
21B
100
AcDbEntity
  8
0
100
AcDbLine
 62
7
  6
CONTINUOUS
 10
0.0
 20
0.0
 11
34.0
 21
0.0
  0
LINE
  5
21C
100
AcDbEntity
  8
0
100
AcDbLine
 62
7
  6
CONTINUOUS
 10
0.0
 20
22.0
 11
34.0
 21
22.0
  0
LINE
  5
21D
100
AcDbEntity
  8
0
100
AcDbLine
 62
7
  6
CONTINUOUS
 10
34.0
 20
0.0
 11
34.0
 21
22.0
  0
LINE
  5
21E
100
AcDbEntity
  8
0
100
AcDbLine
 62
7
  6
CONTINUOUS
 10
5.5183550186
 20
16.0166124535
 11
5.5183550186
 21
15.5166124535
  0
LINE
  5
21F
100
AcDbEntity
  8
0
100
AcDbLine
 62
7
  6
CONTINUOUS
 10
5.5183550186
 20
15.0166124535
 11
5.5183550186
 21
14.5166124535
  0
LINE
  5
220
100
AcDbEntity
  8
0
100
AcDbLine
 62
7
  6
CONTINUOUS
 10
5.5183550186
 20
14.0166124535
 11
5.5183550186
 21
13.5166124535
  0
LINE
  5
221
100
AcDbEntity
  8
0
100
AcDbLine
 62
7
  6
CONTINUOUS
 10
5.5183550186
 20
13.0166124535
 11
5.5183550186
 21
12.5166124535
  0
LINE
  5
222
100
AcDbEntity
  8
0
100
AcDbLine
 62
7
  6
CONTINUOUS
 10
5.5183550186
 20
12.0166124535
 11
5.5183550186
 21
11.5166124535
  0
LINE
  5
223
100
AcDbEntity
  8
0
100
AcDbLine
 62
7
  6
CONTINUOUS
 10
5.5183550186
 20
11.0166124535
 11
5.5183550186
 21
10.5166124535
  0
LINE
  5
224
100
AcDbEntity
  8
0
100
AcDbLine
 62
7
  6
CONTINUOUS
 10
5.5183550186
 20
10.0166124535
 11
5.5183550186
 21
9.5166124535
  0
LINE
  5
225
100
AcDbEntity
  8
0
100
AcDbLine
 62
7
  6
CONTINUOUS
 10
5.7683550186
 20
15.5166124535
 11
5.7683550186
 21
15.0166124535
  0
LINE
  5
226
100
AcDbEntity
  8
0
100
AcDbLine
 62
7
  6
CONTINUOUS
 10
5.7683550186
 20
14.5166124535
 11
5.7683550186
 21
14.0166124535
  0
LINE
  5
227
100
AcDbEntity
  8
0
100
AcDbLine
 62
7
  6
CONTINUOUS
 10
5.7683550186
 20
13.5166124535
 11
5.7683550186
 21
13.0166124535
  0
LINE
  5
228
100
AcDbEntity
  8
0
100
AcDbLine
 62
7
  6
CONTINUOUS
 10
5.7683550186
 20
12.5166124535
 11
5.7683550186
 21
12.0166124535
  0
LINE
  5
229
100
AcDbEntity
  8
0
100
AcDbLine
 62
7
  6
CONTINUOUS
 10
5.7683550186
 20
11.5166124535
 11
5.7683550186
 21
11.0166124535
  0
LINE
  5
22A
100
AcDbEntity
  8
0
100
AcDbLine
 62
7
  6
CONTINUOUS
 10
5.7683550186
 20
10.5166124535
 11
5.7683550186
 21
10.0166124535
  0
LINE
  5
22B
100
AcDbEntity
  8
0
100
AcDbLine
 62
7
  6
CONTINUOUS
 10
6.0183550186
 20
9.5166124535
 11
6.0183550186
 21
9.2666124535
  0
LINE
  5
22C
100
AcDbEntity
  8
0
100
AcDbLine
 62
7
  6
CONTINUOUS
 10
6.0183550186
 20
16.0166124535
 11
6.0183550186
 21
16.2666124535
  0
LINE
  5
22D
100
AcDbEntity
  8
0
100
AcDbLine
 62
7
  6
CONTINUOUS
 10
6.5183550186
 20
16.2666124535
 11
6.5183550186
 21
16.0166124535
  0
LINE
  5
22E
100
AcDbEntity
  8
0
100
AcDbLine
 62
7
  6
CONTINUOUS
 10
6.5183550186
 20
9.2666124535
 11
6.5183550186
 21
9.5166124535
  0
LINE
  5
22F
100
AcDbEntity
  8
0
100
AcDbLine
 62
7
  6
CONTINUOUS
 10
7.0183550186
 20
9.5166124535
 11
7.0183550186
 21
9.2666124535
  0
LINE
  5
230
100
AcDbEntity
  8
0
100
AcDbLine
 62
7
  6
CONTINUOUS
 10
7.0183550186
 20
16.0166124535
 11
7.0183550186
 21
16.2666124535
  0
LINE
  5
231
100
AcDbEntity
  8
0
100
AcDbLine
 62
7
  6
CONTINUOUS
 10
7.5183550186
 20
16.2666124535
 11
7.5183550186
 21
16.0166124535
  0
LINE
  5
232
100
AcDbEntity
  8
0
100
AcDbLine
 62
7
  6
CONTINUOUS
 10
7.5183550186
 20
9.2666124535
 11
7.5183550186
 21
9.5166124535
  0
LINE
  5
233
100
AcDbEntity
  8
0
100
AcDbLine
 62
7
  6
CONTINUOUS
 10
7.7683550186
 20
16.5166124535
 11
7.7683550186
 21
16.0166124535
  0
LINE
  5
234
100
AcDbEntity
  8
0
100
AcDbLine
 62
7
  6
CONTINUOUS
 10
7.7683550186
 20
15.5166124535
 11
7.7683550186
 21
15.0166124535
  0
LINE
  5
235
100
AcDbEntity
  8
0
100
AcDbLine
 62
7
  6
CONTINUOUS
 10
7.7683550186
 20
14.5166124535
 11
7.7683550186
 21
14.0166124535
  0
LINE
  5
236
100
AcDbEntity
  8
0
100
AcDbLine
 62
7
  6
CONTINUOUS
 10
7.7683550186
 20
13.5166124535
 11
7.7683550186
 21
13.0166124535
  0
LINE
  5
237
100
AcDbEntity
  8
0
100
AcDbLine
 62
7
  6
CONTINUOUS
 10
7.7683550186
 20
12.5166124535
 11
7.7683550186
 21
12.0166124535
  0
LINE
  5
238
100
AcDbEntity
  8
0
100
AcDbLine
 62
7
  6
CONTINUOUS
 10
7.7683550186
 20
11.5166124535
 11
7.7683550186
 21
11.0166124535
  0
LINE
  5
239
100
AcDbEntity
  8
0
100
AcDbLine
 62
7
  6
CONTINUOUS
 10
7.7683550186
 20
10.5166124535
 11
7.7683550186
 21
10.0166124535
  0
LINE
  5
23A
100
AcDbEntity
  8
0
100
AcDbLine
 62
7
  6
CONTINUOUS
 10
7.7683550186
 20
9.5166124535
 11
7.7683550186
 21
9.0166124535
  0
LINE
  5
23B
100
AcDbEntity
  8
0
100
AcDbLine
 62
7
  6
CONTINUOUS
 10
7.7683550186
 20
8.5166124535
 11
7.7683550186
 21
8.0166124535
  0
LINE
  5
23C
100
AcDbEntity
  8
0
100
AcDbLine
 62
7
  6
CONTINUOUS
 10
7.7683550186
 20
7.5166124535
 11
7.7683550186
 21
7.0166124535
  0
LINE
  5
23D
100
AcDbEntity
  8
0
100
AcDbLine
 62
7
  6
CONTINUOUS
 10
7.7683550186
 20
6.5166124535
 11
7.7683550186
 21
6.0166124535
  0
LINE
  5
23E
100
AcDbEntity
  8
0
100
AcDbLine
 62
7
  6
CONTINUOUS
 10
8.0183550186
 20
16.7666124535
 11
8.0183550186
 21
16.5166124535
  0
LINE
  5
23F
100
AcDbEntity
  8
0
100
AcDbLine
 62
7
  6
CONTINUOUS
 10
8.0183550186
 20
16.0166124535
 11
8.0183550186
 21
15.5166124535
  0
LINE
  5
240
100
AcDbEntity
  8
0
100
AcDbLine
 62
7
  6
CONTINUOUS
 10
8.0183550186
 20
15.0166124535
 11
8.0183550186
 21
14.5166124535
  0
LINE
  5
241
100
AcDbEntity
  8
0
100
AcDbLine
 62
7
  6
CONTINUOUS
 10
8.0183550186
 20
14.0166124535
 11
8.0183550186
 21
13.5166124535
  0
LINE
  5
242
100
AcDbEntity
  8
0
100
AcDbLine
 62
7
  6
CONTINUOUS
 10
8.0183550186
 20
13.0166124535
 11
8.0183550186
 21
12.5166124535
  0
LINE
  5
243
100
AcDbEntity
  8
0
100
AcDbLine
 62
7
  6
CONTINUOUS
 10
8.0183550186
 20
12.0166124535
 11
8.0183550186
 21
11.5166124535
  0
LINE
  5
244
100
AcDbEntity
  8
0
100
AcDbLine
 62
7
  6
CONTINUOUS
 10
8.0183550186
 20
11.0166124535
 11
8.0183550186
 21
10.5166124535
  0
LINE
  5
245
100
AcDbEntity
  8
0
100
AcDbLine
 62
7
  6
CONTINUOUS
 10
8.0183550186
 20
10.0166124535
 11
8.0183550186
 21
9.5166124535
  0
LINE
  5
246
100
AcDbEntity
  8
0
100
AcDbLine
 62
7
  6
CONTINUOUS
 10
8.0183550186
 20
9.0166124535
 11
8.0183550186
 21
8.5166124535
  0
LINE
  5
247
100
AcDbEntity
  8
0
100
AcDbLine
 62
7
  6
CONTINUOUS
 10
8.0183550186
 20
8.0166124535
 11
8.0183550186
 21
7.5166124535
  0
LINE
  5
248
100
AcDbEntity
  8
0
100
AcDbLine
 62
7
  6
CONTINUOUS
 10
8.0183550186
 20
7.0166124535
 11
8.0183550186
 21
6.5166124535
  0
LINE
  5
249
100
AcDbEntity
  8
0
100
AcDbLine
 62
7
  6
CONTINUOUS
 10
8.0183550186
 20
6.0166124535
 11
8.0183550186
 21
5.7666124535
  0
LINE
  5
24A
100
AcDbEntity
  8
0
100
AcDbLine
 62
7
  6
CONTINUOUS
 10
8.5183550186
 20
17.0166124535
 11
8.5183550186
 21
16.7666124535
  0
LINE
  5
24B
100
AcDbEntity
  8
0
100
AcDbLine
 62
7
  6
CONTINUOUS
 10
8.5183550186
 20
5.5166124535
 11
8.5183550186
 21
5.7666124535
  0
LINE
  5
24C
100
AcDbEntity
  8
0
100
AcDbLine
 62
7
  6
CONTINUOUS
 10
9.0183550186
 20
5.7666124535
 11
9.0183550186
 21
5.5166124535
  0
LINE
  5
24D
100
AcDbEntity
  8
0
100
AcDbLine
 62
7
  6
CONTINUOUS
 10
9.0183550186
 20
16.7666124535
 11
9.0183550186
 21
17.0166124535
  0
LINE
  5
24E
100
AcDbEntity
  8
0
100
AcDbLine
 62
7
  6
CONTINUOUS
 10
9.5183550186
 20
17.0166124535
 11
9.5183550186
 21
16.7666124535
  0
LINE
  5
24F
100
AcDbEntity
  8
0
100
AcDbLine
 62
7
  6
CONTINUOUS
 10
9.5183550186
 20
5.5166124535
 11
9.5183550186
 21
5.7666124535
  0
LINE
  5
250
100
AcDbEntity
  8
0
100
AcDbLine
 62
7
  6
CONTINUOUS
 10
9.7483774623
 20
10.9458595362
 11
9.7483774623
 21
10.8248515087
  0
LINE
  5
251
100
AcDbEntity
  8
0
100
AcDbLine
 62
7
  6
CONTINUOUS
 10
10.0183550186
 20
5.7666124535
 11
10.0183550186
 21
5.5166124535
  0
LINE
  5
252
100
AcDbEntity
  8
0
100
AcDbLine
 62
7
  6
CONTINUOUS
 10
10.0183550186
 20
16.7666124535
 11
10.0183550186
 21
17.0166124535
  0
LINE
  5
253
100
AcDbEntity
  8
0
100
AcDbLine
 62
7
  6
CONTINUOUS
 10
10.5183550186
 20
17.0166124535
 11
10.5183550186
 21
16.7666124535
  0
LINE
  5
254
100
AcDbEntity
  8
0
100
AcDbLine
 62
7
  6
CONTINUOUS
 10
10.5183550186
 20
5.5166124535
 11
10.5183550186
 21
5.7666124535
  0
LINE
  5
255
100
AcDbEntity
  8
0
100
AcDbLine
 62
7
  6
CONTINUOUS
 10
11.0183550186
 20
5.7666124535
 11
11.0183550186
 21
5.5166124535
  0
LINE
  5
256
100
AcDbEntity
  8
0
100
AcDbLine
 62
7
  6
CONTINUOUS
 10
11.0183550186
 20
16.7666124535
 11
11.0183550186
 21
17.0166124535
  0
LINE
  5
257
100
AcDbEntity
  8
0
100
AcDbLine
 62
7
  6
CONTINUOUS
 10
11.5183550186
 20
17.0166124535
 11
11.5183550186
 21
16.7666124535
  0
LINE
  5
258
100
AcDbEntity
  8
0
100
AcDbLine
 62
7
  6
CONTINUOUS
 10
11.5183550186
 20
5.5166124535
 11
11.5183550186
 21
5.7666124535
  0
LINE
  5
259
100
AcDbEntity
  8
0
100
AcDbLine
 62
7
  6
CONTINUOUS
 10
23.0183550186
 20
5.5166124535
 11
22.5183550186
 21
5.5166124535
  0
LINE
  5
25A
100
AcDbEntity
  8
0
100
AcDbLine
 62
7
  6
CONTINUOUS
 10
22.0183550186
 20
5.5166124535
 11
21.5183550186
 21
5.5166124535
  0
LINE
  5
25B
100
AcDbEntity
  8
0
100
AcDbLine
 62
7
  6
CONTINUOUS
 10
21.0183550186
 20
5.5166124535
 11
20.5183550186
 21
5.5166124535
  0
LINE
  5
25C
100
AcDbEntity
  8
0
100
AcDbLine
 62
7
  6
CONTINUOUS
 10
20.0183550186
 20
5.5166124535
 11
19.5183550186
 21
5.5166124535
  0
LINE
  5
25D
100
AcDbEntity
  8
0
100
AcDbLine
 62
7
  6
CONTINUOUS
 10
19.0183550186
 20
5.5166124535
 11
18.5183550186
 21
5.5166124535
  0
LINE
  5
25E
100
AcDbEntity
  8
0
100
AcDbLine
 62
7
  6
CONTINUOUS
 10
18.0183550186
 20
5.5166124535
 11
17.5183550186
 21
5.5166124535
  0
LINE
  5
25F
100
AcDbEntity
  8
0
100
AcDbLine
 62
7
  6
CONTINUOUS
 10
14.0183550186
 20
5.5166124535
 11
13.5183550186
 21
5.5166124535
  0
LINE
  5
260
100
AcDbEntity
  8
0
100
AcDbLine
 62
7
  6
CONTINUOUS
 10
13.0183550186
 20
5.5166124535
 11
12.5183550186
 21
5.5166124535
  0
LINE
  5
261
100
AcDbEntity
  8
0
100
AcDbLine
 62
7
  6
CONTINUOUS
 10
12.0183550186
 20
5.5166124535
 11
11.5183550186
 21
5.5166124535
  0
LINE
  5
262
100
AcDbEntity
  8
0
100
AcDbLine
 62
7
  6
CONTINUOUS
 10
11.0183550186
 20
5.5166124535
 11
10.5183550186
 21
5.5166124535
  0
LINE
  5
263
100
AcDbEntity
  8
0
100
AcDbLine
 62
7
  6
CONTINUOUS
 10
10.0183550186
 20
5.5166124535
 11
9.5183550186
 21
5.5166124535
  0
LINE
  5
264
100
AcDbEntity
  8
0
100
AcDbLine
 62
7
  6
CONTINUOUS
 10
9.0183550186
 20
5.5166124535
 11
8.5183550186
 21
5.5166124535
  0
LINE
  5
265
100
AcDbEntity
  8
0
100
AcDbLine
 62
7
  6
CONTINUOUS
 10
14.5183550186
 20
5.5166124535
 11
15.0183550186
 21
5.5166124535
  0
LINE
  5
266
100
AcDbEntity
  8
0
100
AcDbLine
 62
7
  6
CONTINUOUS
 10
15.5183550186
 20
5.5166124535
 11
16.0183550186
 21
5.5166124535
  0
LINE
  5
267
100
AcDbEntity
  8
0
100
AcDbLine
 62
7
  6
CONTINUOUS
 10
16.5183550186
 20
5.5166124535
 11
17.0183550186
 21
5.5166124535
  0
LINE
  5
268
100
AcDbEntity
  8
0
100
AcDbLine
 62
7
  6
CONTINUOUS
 10
23.5183550186
 20
5.5166124535
 11
24.0183550186
 21
5.5166124535
  0
LINE
  5
269
100
AcDbEntity
  8
0
100
AcDbLine
 62
7
  6
CONTINUOUS
 10
24.5183550186
 20
5.5166124535
 11
25.0183550186
 21
5.5166124535
  0
LINE
  5
26A
100
AcDbEntity
  8
0
100
AcDbLine
 62
7
  6
CONTINUOUS
 10
25.5183550186
 20
5.5166124535
 11
26.0183550186
 21
5.5166124535
  0
LINE
  5
26B
100
AcDbEntity
  8
0
100
AcDbLine
 62
7
  6
CONTINUOUS
 10
8.0183550186
 20
5.7666124535
 11
8.5183550186
 21
5.7666124535
  0
LINE
  5
26C
100
AcDbEntity
  8
0
100
AcDbLine
 62
7
  6
CONTINUOUS
 10
9.0183550186
 20
5.7666124535
 11
9.5183550186
 21
5.7666124535
  0
LINE
  5
26D
100
AcDbEntity
  8
0
100
AcDbLine
 62
7
  6
CONTINUOUS
 10
10.0183550186
 20
5.7666124535
 11
10.5183550186
 21
5.7666124535
  0
LINE
  5
26E
100
AcDbEntity
  8
0
100
AcDbLine
 62
7
  6
CONTINUOUS
 10
11.0183550186
 20
5.7666124535
 11
11.5183550186
 21
5.7666124535
  0
LINE
  5
26F
100
AcDbEntity
  8
0
100
AcDbLine
 62
7
  6
CONTINUOUS
 10
12.0183550186
 20
5.7666124535
 11
12.5183550186
 21
5.7666124535
  0
LINE
  5
270
100
AcDbEntity
  8
0
100
AcDbLine
 62
7
  6
CONTINUOUS
 10
13.0183550186
 20
5.7666124535
 11
13.5183550186
 21
5.7666124535
  0
LINE
  5
271
100
AcDbEntity
  8
0
100
AcDbLine
 62
7
  6
CONTINUOUS
 10
14.0183550186
 20
5.7666124535
 11
14.5183550186
 21
5.7666124535
  0
LINE
  5
272
100
AcDbEntity
  8
0
100
AcDbLine
 62
7
  6
CONTINUOUS
 10
15.0183550186
 20
5.7666124535
 11
15.5183550186
 21
5.7666124535
  0
LINE
  5
273
100
AcDbEntity
  8
0
100
AcDbLine
 62
7
  6
CONTINUOUS
 10
16.0183550186
 20
5.7666124535
 11
16.5183550186
 21
5.7666124535
  0
LINE
  5
274
100
AcDbEntity
  8
0
100
AcDbLine
 62
7
  6
CONTINUOUS
 10
17.0183550186
 20
5.7666124535
 11
17.5183550186
 21
5.7666124535
  0
LINE
  5
275
100
AcDbEntity
  8
0
100
AcDbLine
 62
7
  6
CONTINUOUS
 10
18.0183550186
 20
5.7666124535
 11
18.5183550186
 21
5.7666124535
  0
LINE
  5
276
100
AcDbEntity
  8
0
100
AcDbLine
 62
7
  6
CONTINUOUS
 10
19.0183550186
 20
5.7666124535
 11
19.5183550186
 21
5.7666124535
  0
LINE
  5
277
100
AcDbEntity
  8
0
100
AcDbLine
 62
7
  6
CONTINUOUS
 10
20.0183550186
 20
5.7666124535
 11
20.5183550186
 21
5.7666124535
  0
LINE
  5
278
100
AcDbEntity
  8
0
100
AcDbLine
 62
7
  6
CONTINUOUS
 10
21.0183550186
 20
5.7666124535
 11
21.5183550186
 21
5.7666124535
  0
LINE
  5
279
100
AcDbEntity
  8
0
100
AcDbLine
 62
7
  6
CONTINUOUS
 10
22.0183550186
 20
5.7666124535
 11
22.5183550186
 21
5.7666124535
  0
LINE
  5
27A
100
AcDbEntity
  8
0
100
AcDbLine
 62
7
  6
CONTINUOUS
 10
23.0183550186
 20
5.7666124535
 11
23.5183550186
 21
5.7666124535
  0
LINE
  5
27B
100
AcDbEntity
  8
0
100
AcDbLine
 62
7
  6
CONTINUOUS
 10
24.0183550186
 20
5.7666124535
 11
24.5183550186
 21
5.7666124535
  0
LINE
  5
27C
100
AcDbEntity
  8
0
100
AcDbLine
 62
7
  6
CONTINUOUS
 10
25.0183550186
 20
5.7666124535
 11
25.5183550186
 21
5.7666124535
  0
LINE
  5
27D
100
AcDbEntity
  8
0
100
AcDbLine
 62
7
  6
CONTINUOUS
 10
23.7683550186
 20
6.0166124535
 11
23.5183550186
 21
6.0166124535
  0
LINE
  5
27E
100
AcDbEntity
  8
0
100
AcDbLine
 62
7
  6
CONTINUOUS
 10
14.7683550186
 20
6.0166124535
 11
14.5183550186
 21
6.0166124535
  0
LINE
  5
27F
100
AcDbEntity
  8
0
100
AcDbLine
 62
7
  6
CONTINUOUS
 10
7.7683550186
 20
6.0166124535
 11
8.0183550186
 21
6.0166124535
  0
LINE
  5
280
100
AcDbEntity
  8
0
100
AcDbLine
 62
7
  6
CONTINUOUS
 10
16.7683550186
 20
6.0166124535
 11
17.0183550186
 21
6.0166124535
  0
LINE
  5
281
100
AcDbEntity
  8
0
100
AcDbLine
 62
7
  6
CONTINUOUS
 10
25.7683550186
 20
6.0166124535
 11
26.0183550186
 21
6.0166124535
  0
LINE
  5
282
100
AcDbEntity
  8
0
100
AcDbLine
 62
7
  6
CONTINUOUS
 10
12.0183550186
 20
5.7666124535
 11
12.0183550186
 21
5.5166124535
  0
LINE
  5
283
100
AcDbEntity
  8
0
100
AcDbLine
 62
7
  6
CONTINUOUS
 10
12.0183550186
 20
16.7666124535
 11
12.0183550186
 21
17.0166124535
  0
LINE
  5
284
100
AcDbEntity
  8
0
100
AcDbLine
 62
7
  6
CONTINUOUS
 10
12.5183550186
 20
17.0166124535
 11
12.5183550186
 21
16.7666124535
  0
LINE
  5
285
100
AcDbEntity
  8
0
100
AcDbLine
 62
7
  6
CONTINUOUS
 10
12.5183550186
 20
5.5166124535
 11
12.5183550186
 21
5.7666124535
  0
LINE
  5
286
100
AcDbEntity
  8
0
100
AcDbLine
 62
7
  6
CONTINUOUS
 10
26.0183550186
 20
6.5166124535
 11
25.7683550186
 21
6.5166124535
  0
LINE
  5
287
100
AcDbEntity
  8
0
100
AcDbLine
 62
7
  6
CONTINUOUS
 10
17.0183550186
 20
6.5166124535
 11
16.7683550186
 21
6.5166124535
  0
LINE
  5
288
100
AcDbEntity
  8
0
100
AcDbLine
 62
7
  6
CONTINUOUS
 10
8.0183550186
 20
6.5166124535
 11
7.7683550186
 21
6.5166124535
  0
LINE
  5
289
100
AcDbEntity
  8
0
100
AcDbLine
 62
7
  6
CONTINUOUS
 10
14.5183550186
 20
6.5166124535
 11
14.7683550186
 21
6.5166124535
  0
LINE
  5
28A
100
AcDbEntity
  8
0
100
AcDbLine
 62
7
  6
CONTINUOUS
 10
23.5183550186
 20
6.5166124535
 11
23.7683550186
 21
6.5166124535
  0
LINE
  5
28B
100
AcDbEntity
  8
0
100
AcDbLine
 62
7
  6
CONTINUOUS
 10
23.7683550186
 20
7.0166124535
 11
23.5183550186
 21
7.0166124535
  0
LINE
  5
28C
100
AcDbEntity
  8
0
100
AcDbLine
 62
7
  6
CONTINUOUS
 10
14.7683550186
 20
7.0166124535
 11
14.5183550186
 21
7.0166124535
  0
LINE
  5
28D
100
AcDbEntity
  8
0
100
AcDbLine
 62
7
  6
CONTINUOUS
 10
7.7683550186
 20
7.0166124535
 11
8.0183550186
 21
7.0166124535
  0
LINE
  5
28E
100
AcDbEntity
  8
0
100
AcDbLine
 62
7
  6
CONTINUOUS
 10
16.7683550186
 20
7.0166124535
 11
17.0183550186
 21
7.0166124535
  0
LINE
  5
28F
100
AcDbEntity
  8
0
100
AcDbLine
 62
7
  6
CONTINUOUS
 10
25.7683550186
 20
7.0166124535
 11
26.0183550186
 21
7.0166124535
  0
LINE
  5
290
100
AcDbEntity
  8
0
100
AcDbLine
 62
7
  6
CONTINUOUS
 10
12.7883325749
 20
10.8248515087
 11
12.7883325749
 21
10.9458595362
  0
LINE
  5
291
100
AcDbEntity
  8
0
100
AcDbLine
 62
7
  6
CONTINUOUS
 10
13.0183550186
 20
5.7666124535
 11
13.0183550186
 21
5.5166124535
  0
LINE
  5
292
100
AcDbEntity
  8
0
100
AcDbLine
 62
7
  6
CONTINUOUS
 10
13.0183550186
 20
16.7666124535
 11
13.0183550186
 21
17.0166124535
  0
LINE
  5
293
100
AcDbEntity
  8
0
100
AcDbLine
 62
7
  6
CONTINUOUS
 10
13.5183550186
 20
17.0166124535
 11
13.5183550186
 21
16.7666124535
  0
LINE
  5
294
100
AcDbEntity
  8
0
100
AcDbLine
 62
7
  6
CONTINUOUS
 10
13.5183550186
 20
5.5166124535
 11
13.5183550186
 21
5.7666124535
  0
LINE
  5
295
100
AcDbEntity
  8
0
100
AcDbLine
 62
7
  6
CONTINUOUS
 10
26.0183550186
 20
7.5166124535
 11
25.7683550186
 21
7.5166124535
  0
LINE
  5
296
100
AcDbEntity
  8
0
100
AcDbLine
 62
7
  6
CONTINUOUS
 10
17.0183550186
 20
7.5166124535
 11
16.7683550186
 21
7.5166124535
  0
LINE
  5
297
100
AcDbEntity
  8
0
100
AcDbLine
 62
7
  6
CONTINUOUS
 10
8.0183550186
 20
7.5166124535
 11
7.7683550186
 21
7.5166124535
  0
LINE
  5
298
100
AcDbEntity
  8
0
100
AcDbLine
 62
7
  6
CONTINUOUS
 10
14.5183550186
 20
7.5166124535
 11
14.7683550186
 21
7.5166124535
  0
LINE
  5
299
100
AcDbEntity
  8
0
100
AcDbLine
 62
7
  6
CONTINUOUS
 10
23.5183550186
 20
7.5166124535
 11
23.7683550186
 21
7.5166124535
  0
LINE
  5
29A
100
AcDbEntity
  8
0
100
AcDbLine
 62
7
  6
CONTINUOUS
 10
14.0183550186
 20
5.7666124535
 11
14.0183550186
 21
5.5166124535
  0
LINE
  5
29B
100
AcDbEntity
  8
0
100
AcDbLine
 62
7
  6
CONTINUOUS
 10
14.0183550186
 20
16.7666124535
 11
14.0183550186
 21
17.0166124535
  0
LINE
  5
29C
100
AcDbEntity
  8
0
100
AcDbLine
 62
7
  6
CONTINUOUS
 10
18.9262954181
 20
15.3401278683
 11
19.035414619
 21
15.4031278683
  0
LINE
  5
29D
100
AcDbEntity
  8
0
100
AcDbLine
 62
7
  6
CONTINUOUS
 10
23.7683550186
 20
8.0166124535
 11
23.5183550186
 21
8.0166124535
  0
LINE
  5
29E
100
AcDbEntity
  8
0
100
AcDbLine
 62
7
  6
CONTINUOUS
 10
14.7683550186
 20
8.0166124535
 11
14.5183550186
 21
8.0166124535
  0
LINE
  5
29F
100
AcDbEntity
  8
0
100
AcDbLine
 62
7
  6
CONTINUOUS
 10
7.7683550186
 20
8.0166124535
 11
8.0183550186
 21
8.0166124535
  0
LINE
  5
2A0
100
AcDbEntity
  8
0
100
AcDbLine
 62
7
  6
CONTINUOUS
 10
16.7683550186
 20
8.0166124535
 11
17.0183550186
 21
8.0166124535
  0
LINE
  5
2A1
100
AcDbEntity
  8
0
100
AcDbLine
 62
7
  6
CONTINUOUS
 10
25.7683550186
 20
8.0166124535
 11
26.0183550186
 21
8.0166124535
  0
LINE
  5
2A2
100
AcDbEntity
  8
0
100
AcDbLine
 62
7
  6
CONTINUOUS
 10
26.0183550186
 20
8.5166124535
 11
25.7683550186
 21
8.5166124535
  0
LINE
  5
2A3
100
AcDbEntity
  8
0
100
AcDbLine
 62
7
  6
CONTINUOUS
 10
17.0183550186
 20
8.5166124535
 11
16.7683550186
 21
8.5166124535
  0
LINE
  5
2A4
100
AcDbEntity
  8
0
100
AcDbLine
 62
7
  6
CONTINUOUS
 10
8.0183550186
 20
8.5166124535
 11
7.7683550186
 21
8.5166124535
  0
LINE
  5
2A5
100
AcDbEntity
  8
0
100
AcDbLine
 62
7
  6
CONTINUOUS
 10
14.5183550186
 20
8.5166124535
 11
14.7683550186
 21
8.5166124535
  0
LINE
  5
2A6
100
AcDbEntity
  8
0
100
AcDbLine
 62
7
  6
CONTINUOUS
 10
23.5183550186
 20
8.5166124535
 11
23.7683550186
 21
8.5166124535
  0
LINE
  5
2A7
100
AcDbEntity
  8
0
100
AcDbLine
 62
7
  6
CONTINUOUS
 10
14.5183550186
 20
17.0166124535
 11
14.5183550186
 21
16.5166124535
  0
LINE
  5
2A8
100
AcDbEntity
  8
0
100
AcDbLine
 62
7
  6
CONTINUOUS
 10
14.5183550186
 20
16.0166124535
 11
14.5183550186
 21
15.5166124535
  0
LINE
  5
2A9
100
AcDbEntity
  8
0
100
AcDbLine
 62
7
  6
CONTINUOUS
 10
14.5183550186
 20
15.0166124535
 11
14.5183550186
 21
14.5166124535
  0
LINE
  5
2AA
100
AcDbEntity
  8
0
100
AcDbLine
 62
7
  6
CONTINUOUS
 10
14.5183550186
 20
14.0166124535
 11
14.5183550186
 21
13.5166124535
  0
LINE
  5
2AB
100
AcDbEntity
  8
0
100
AcDbLine
 62
7
  6
CONTINUOUS
 10
14.5183550186
 20
13.0166124535
 11
14.5183550186
 21
12.5166124535
  0
LINE
  5
2AC
100
AcDbEntity
  8
0
100
AcDbLine
 62
7
  6
CONTINUOUS
 10
14.5183550186
 20
12.0166124535
 11
14.5183550186
 21
11.5166124535
  0
LINE
  5
2AD
100
AcDbEntity
  8
0
100
AcDbLine
 62
7
  6
CONTINUOUS
 10
14.5183550186
 20
11.0166124535
 11
14.5183550186
 21
10.5166124535
  0
LINE
  5
2AE
100
AcDbEntity
  8
0
100
AcDbLine
 62
7
  6
CONTINUOUS
 10
14.5183550186
 20
10.0166124535
 11
14.5183550186
 21
9.5166124535
  0
LINE
  5
2AF
100
AcDbEntity
  8
0
100
AcDbLine
 62
7
  6
CONTINUOUS
 10
14.5183550186
 20
9.0166124535
 11
14.5183550186
 21
8.5166124535
  0
LINE
  5
2B0
100
AcDbEntity
  8
0
100
AcDbLine
 62
7
  6
CONTINUOUS
 10
14.5183550186
 20
8.0166124535
 11
14.5183550186
 21
7.5166124535
  0
LINE
  5
2B1
100
AcDbEntity
  8
0
100
AcDbLine
 62
7
  6
CONTINUOUS
 10
14.5183550186
 20
7.0166124535
 11
14.5183550186
 21
6.5166124535
  0
LINE
  5
2B2
100
AcDbEntity
  8
0
100
AcDbLine
 62
7
  6
CONTINUOUS
 10
14.5183550186
 20
6.0166124535
 11
14.5183550186
 21
5.5166124535
  0
LINE
  5
2B3
100
AcDbEntity
  8
0
100
AcDbLine
 62
7
  6
CONTINUOUS
 10
14.7683550186
 20
16.5166124535
 11
14.7683550186
 21
16.0166124535
  0
LINE
  5
2B4
100
AcDbEntity
  8
0
100
AcDbLine
 62
7
  6
CONTINUOUS
 10
14.7683550186
 20
15.5166124535
 11
14.7683550186
 21
15.0166124535
  0
LINE
  5
2B5
100
AcDbEntity
  8
0
100
AcDbLine
 62
7
  6
CONTINUOUS
 10
14.7683550186
 20
14.5166124535
 11
14.7683550186
 21
14.0166124535
  0
LINE
  5
2B6
100
AcDbEntity
  8
0
100
AcDbLine
 62
7
  6
CONTINUOUS
 10
14.7683550186
 20
13.5166124535
 11
14.7683550186
 21
13.0166124535
  0
LINE
  5
2B7
100
AcDbEntity
  8
0
100
AcDbLine
 62
7
  6
CONTINUOUS
 10
14.7683550186
 20
12.5166124535
 11
14.7683550186
 21
12.0166124535
  0
LINE
  5
2B8
100
AcDbEntity
  8
0
100
AcDbLine
 62
7
  6
CONTINUOUS
 10
14.7683550186
 20
11.5166124535
 11
14.7683550186
 21
11.0166124535
  0
LINE
  5
2B9
100
AcDbEntity
  8
0
100
AcDbLine
 62
7
  6
CONTINUOUS
 10
14.7683550186
 20
10.5166124535
 11
14.7683550186
 21
10.0166124535
  0
LINE
  5
2BA
100
AcDbEntity
  8
0
100
AcDbLine
 62
7
  6
CONTINUOUS
 10
14.7683550186
 20
9.5166124535
 11
14.7683550186
 21
9.0166124535
  0
LINE
  5
2BB
100
AcDbEntity
  8
0
100
AcDbLine
 62
7
  6
CONTINUOUS
 10
14.7683550186
 20
8.5166124535
 11
14.7683550186
 21
8.0166124535
  0
LINE
  5
2BC
100
AcDbEntity
  8
0
100
AcDbLine
 62
7
  6
CONTINUOUS
 10
14.7683550186
 20
7.5166124535
 11
14.7683550186
 21
7.0166124535
  0
LINE
  5
2BD
100
AcDbEntity
  8
0
100
AcDbLine
 62
7
  6
CONTINUOUS
 10
14.7683550186
 20
6.5166124535
 11
14.7683550186
 21
6.0166124535
  0
LINE
  5
2BE
100
AcDbEntity
  8
0
100
AcDbLine
 62
7
  6
CONTINUOUS
 10
15.0183550186
 20
17.0166124535
 11
15.0183550186
 21
16.7666124535
  0
LINE
  5
2BF
100
AcDbEntity
  8
0
100
AcDbLine
 62
7
  6
CONTINUOUS
 10
15.0183550186
 20
5.5166124535
 11
15.0183550186
 21
5.7666124535
  0
LINE
  5
2C0
100
AcDbEntity
  8
0
100
AcDbLine
 62
7
  6
CONTINUOUS
 10
19.135414619
 20
15.2299227875
 11
19.0262954181
 21
15.1669227875
  0
LINE
  5
2C1
100
AcDbEntity
  8
0
100
AcDbLine
 62
7
  6
CONTINUOUS
 10
23.7683550186
 20
9.0166124535
 11
23.5183550186
 21
9.0166124535
  0
LINE
  5
2C2
100
AcDbEntity
  8
0
100
AcDbLine
 62
7
  6
CONTINUOUS
 10
14.7683550186
 20
9.0166124535
 11
14.5183550186
 21
9.0166124535
  0
LINE
  5
2C3
100
AcDbEntity
  8
0
100
AcDbLine
 62
7
  6
CONTINUOUS
 10
7.7683550186
 20
9.0166124535
 11
8.0183550186
 21
9.0166124535
  0
LINE
  5
2C4
100
AcDbEntity
  8
0
100
AcDbLine
 62
7
  6
CONTINUOUS
 10
16.7683550186
 20
9.0166124535
 11
17.0183550186
 21
9.0166124535
  0
LINE
  5
2C5
100
AcDbEntity
  8
0
100
AcDbLine
 62
7
  6
CONTINUOUS
 10
25.7683550186
 20
9.0166124535
 11
26.0183550186
 21
9.0166124535
  0
LINE
  5
2C6
100
AcDbEntity
  8
0
100
AcDbLine
 62
7
  6
CONTINUOUS
 10
6.0183550186
 20
9.2666124535
 11
6.5183550186
 21
9.2666124535
  0
LINE
  5
2C7
100
AcDbEntity
  8
0
100
AcDbLine
 62
7
  6
CONTINUOUS
 10
7.0183550186
 20
9.2666124535
 11
7.5183550186
 21
9.2666124535
  0
LINE
  5
2C8
100
AcDbEntity
  8
0
100
AcDbLine
 62
7
  6
CONTINUOUS
 10
26.0183550186
 20
9.5166124535
 11
25.7683550186
 21
9.5166124535
  0
LINE
  5
2C9
100
AcDbEntity
  8
0
100
AcDbLine
 62
7
  6
CONTINUOUS
 10
17.0183550186
 20
9.5166124535
 11
16.7683550186
 21
9.5166124535
  0
LINE
  5
2CA
100
AcDbEntity
  8
0
100
AcDbLine
 62
7
  6
CONTINUOUS
 10
5.5183550186
 20
9.5166124535
 11
6.0183550186
 21
9.5166124535
  0
LINE
  5
2CB
100
AcDbEntity
  8
0
100
AcDbLine
 62
7
  6
CONTINUOUS
 10
6.5183550186
 20
9.5166124535
 11
7.0183550186
 21
9.5166124535
  0
LINE
  5
2CC
100
AcDbEntity
  8
0
100
AcDbLine
 62
7
  6
CONTINUOUS
 10
7.5183550186
 20
9.5166124535
 11
8.0183550186
 21
9.5166124535
  0
LINE
  5
2CD
100
AcDbEntity
  8
0
100
AcDbLine
 62
7
  6
CONTINUOUS
 10
14.5183550186
 20
9.5166124535
 11
14.7683550186
 21
9.5166124535
  0
LINE
  5
2CE
100
AcDbEntity
  8
0
100
AcDbLine
 62
7
  6
CONTINUOUS
 10
23.5183550186
 20
9.5166124535
 11
23.7683550186
 21
9.5166124535
  0
LINE
  5
2CF
100
AcDbEntity
  8
0
100
AcDbLine
 62
7
  6
CONTINUOUS
 10
15.5183550186
 20
17.0166124535
 11
15.5183550186
 21
16.7666124535
  0
LINE
  5
2D0
100
AcDbEntity
  8
0
100
AcDbLine
 62
7
  6
CONTINUOUS
 10
15.5183550186
 20
5.5166124535
 11
15.5183550186
 21
5.7666124535
  0
LINE
  5
2D1
100
AcDbEntity
  8
0
100
AcDbLine
 62
7
  6
CONTINUOUS
 10
16.0183550186
 20
17.0166124535
 11
16.0183550186
 21
16.7666124535
  0
LINE
  5
2D2
100
AcDbEntity
  8
0
100
AcDbLine
 62
7
  6
CONTINUOUS
 10
16.0183550186
 20
5.5166124535
 11
16.0183550186
 21
5.7666124535
  0
LINE
  5
2D3
100
AcDbEntity
  8
0
100
AcDbLine
 62
7
  6
CONTINUOUS
 10
26.2683550186
 20
9.7666124535
 11
26.7683550186
 21
9.7666124535
  0
LINE
  5
2D4
100
AcDbEntity
  8
0
100
AcDbLine
 62
7
  6
CONTINUOUS
 10
27.2683550186
 20
9.7666124535
 11
27.7683550186
 21
9.7666124535
  0
LINE
  5
2D5
100
AcDbEntity
  8
0
100
AcDbLine
 62
7
  6
CONTINUOUS
 10
23.7683550186
 20
10.0166124535
 11
23.5183550186
 21
10.0166124535
  0
LINE
  5
2D6
100
AcDbEntity
  8
0
100
AcDbLine
 62
7
  6
CONTINUOUS
 10
14.7683550186
 20
10.0166124535
 11
14.5183550186
 21
10.0166124535
  0
LINE
  5
2D7
100
AcDbEntity
  8
0
100
AcDbLine
 62
7
  6
CONTINUOUS
 10
5.7683550186
 20
10.0166124535
 11
5.5183550186
 21
10.0166124535
  0
LINE
  5
2D8
100
AcDbEntity
  8
0
100
AcDbLine
 62
7
  6
CONTINUOUS
 10
7.7683550186
 20
10.0166124535
 11
8.0183550186
 21
10.0166124535
  0
LINE
  5
2D9
100
AcDbEntity
  8
0
100
AcDbLine
 62
7
  6
CONTINUOUS
 10
16.7683550186
 20
10.0166124535
 11
17.0183550186
 21
10.0166124535
  0
LINE
  5
2DA
100
AcDbEntity
  8
0
100
AcDbLine
 62
7
  6
CONTINUOUS
 10
25.7683550186
 20
10.0166124535
 11
26.2683550186
 21
10.0166124535
  0
LINE
  5
2DB
100
AcDbEntity
  8
0
100
AcDbLine
 62
7
  6
CONTINUOUS
 10
26.7683550186
 20
10.0166124535
 11
27.2683550186
 21
10.0166124535
  0
LINE
  5
2DC
100
AcDbEntity
  8
0
100
AcDbLine
 62
7
  6
CONTINUOUS
 10
27.7683550186
 20
10.0166124535
 11
28.2683550186
 21
10.0166124535
  0
LINE
  5
2DD
100
AcDbEntity
  8
0
100
AcDbLine
 62
7
  6
CONTINUOUS
 10
26.0183550186
 20
10.5166124535
 11
25.7683550186
 21
10.5166124535
  0
LINE
  5
2DE
100
AcDbEntity
  8
0
100
AcDbLine
 62
7
  6
CONTINUOUS
 10
17.0183550186
 20
10.5166124535
 11
16.7683550186
 21
10.5166124535
  0
LINE
  5
2DF
100
AcDbEntity
  8
0
100
AcDbLine
 62
7
  6
CONTINUOUS
 10
8.0183550186
 20
10.5166124535
 11
7.7683550186
 21
10.5166124535
  0
LINE
  5
2E0
100
AcDbEntity
  8
0
100
AcDbLine
 62
7
  6
CONTINUOUS
 10
5.5183550186
 20
10.5166124535
 11
5.7683550186
 21
10.5166124535
  0
LINE
  5
2E1
100
AcDbEntity
  8
0
100
AcDbLine
 62
7
  6
CONTINUOUS
 10
14.5183550186
 20
10.5166124535
 11
14.7683550186
 21
10.5166124535
  0
LINE
  5
2E2
100
AcDbEntity
  8
0
100
AcDbLine
 62
7
  6
CONTINUOUS
 10
23.5183550186
 20
10.5166124535
 11
23.7683550186
 21
10.5166124535
  0
LINE
  5
2E3
100
AcDbEntity
  8
0
100
AcDbLine
 62
7
  6
CONTINUOUS
 10
28.0183550186
 20
10.5166124535
 11
28.2683550186
 21
10.5166124535
  0
LINE
  5
2E4
100
AcDbEntity
  8
0
100
AcDbLine
 62
7
  6
CONTINUOUS
 10
16.5183550186
 20
17.0166124535
 11
16.5183550186
 21
16.7666124535
  0
LINE
  5
2E5
100
AcDbEntity
  8
0
100
AcDbLine
 62
7
  6
CONTINUOUS
 10
16.5183550186
 20
5.5166124535
 11
16.5183550186
 21
5.7666124535
  0
LINE
  5
2E6
100
AcDbEntity
  8
0
100
AcDbLine
 62
7
  6
CONTINUOUS
 10
16.7683550186
 20
16.5166124535
 11
16.7683550186
 21
16.0166124535
  0
LINE
  5
2E7
100
AcDbEntity
  8
0
100
AcDbLine
 62
7
  6
CONTINUOUS
 10
16.7683550186
 20
15.5166124535
 11
16.7683550186
 21
15.0166124535
  0
LINE
  5
2E8
100
AcDbEntity
  8
0
100
AcDbLine
 62
7
  6
CONTINUOUS
 10
16.7683550186
 20
14.5166124535
 11
16.7683550186
 21
14.0166124535
  0
LINE
  5
2E9
100
AcDbEntity
  8
0
100
AcDbLine
 62
7
  6
CONTINUOUS
 10
16.7683550186
 20
13.5166124535
 11
16.7683550186
 21
13.0166124535
  0
LINE
  5
2EA
100
AcDbEntity
  8
0
100
AcDbLine
 62
7
  6
CONTINUOUS
 10
16.7683550186
 20
12.5166124535
 11
16.7683550186
 21
12.0166124535
  0
LINE
  5
2EB
100
AcDbEntity
  8
0
100
AcDbLine
 62
7
  6
CONTINUOUS
 10
16.7683550186
 20
11.5166124535
 11
16.7683550186
 21
11.0166124535
  0
LINE
  5
2EC
100
AcDbEntity
  8
0
100
AcDbLine
 62
7
  6
CONTINUOUS
 10
16.7683550186
 20
10.5166124535
 11
16.7683550186
 21
10.0166124535
  0
LINE
  5
2ED
100
AcDbEntity
  8
0
100
AcDbLine
 62
7
  6
CONTINUOUS
 10
16.7683550186
 20
9.5166124535
 11
16.7683550186
 21
9.0166124535
  0
LINE
  5
2EE
100
AcDbEntity
  8
0
100
AcDbLine
 62
7
  6
CONTINUOUS
 10
16.7683550186
 20
8.5166124535
 11
16.7683550186
 21
8.0166124535
  0
LINE
  5
2EF
100
AcDbEntity
  8
0
100
AcDbLine
 62
7
  6
CONTINUOUS
 10
16.7683550186
 20
7.5166124535
 11
16.7683550186
 21
7.0166124535
  0
LINE
  5
2F0
100
AcDbEntity
  8
0
100
AcDbLine
 62
7
  6
CONTINUOUS
 10
16.7683550186
 20
6.5166124535
 11
16.7683550186
 21
6.0166124535
  0
LINE
  5
2F1
100
AcDbEntity
  8
0
100
AcDbLine
 62
7
  6
CONTINUOUS
 10
28.2683550186
 20
11.0166124535
 11
28.0183550186
 21
11.0166124535
  0
LINE
  5
2F2
100
AcDbEntity
  8
0
100
AcDbLine
 62
7
  6
CONTINUOUS
 10
23.7683550186
 20
11.0166124535
 11
23.5183550186
 21
11.0166124535
  0
LINE
  5
2F3
100
AcDbEntity
  8
0
100
AcDbLine
 62
7
  6
CONTINUOUS
 10
14.7683550186
 20
11.0166124535
 11
14.5183550186
 21
11.0166124535
  0
LINE
  5
2F4
100
AcDbEntity
  8
0
100
AcDbLine
 62
7
  6
CONTINUOUS
 10
5.7683550186
 20
11.0166124535
 11
5.5183550186
 21
11.0166124535
  0
LINE
  5
2F5
100
AcDbEntity
  8
0
100
AcDbLine
 62
7
  6
CONTINUOUS
 10
7.7683550186
 20
11.0166124535
 11
8.0183550186
 21
11.0166124535
  0
LINE
  5
2F6
100
AcDbEntity
  8
0
100
AcDbLine
 62
7
  6
CONTINUOUS
 10
16.7683550186
 20
11.0166124535
 11
17.0183550186
 21
11.0166124535
  0
LINE
  5
2F7
100
AcDbEntity
  8
0
100
AcDbLine
 62
7
  6
CONTINUOUS
 10
25.7683550186
 20
11.0166124535
 11
26.0183550186
 21
11.0166124535
  0
LINE
  5
2F8
100
AcDbEntity
  8
0
100
AcDbLine
 62
7
  6
CONTINUOUS
 10
17.0183550186
 20
17.0166124535
 11
17.0183550186
 21
16.5166124535
  0
LINE
  5
2F9
100
AcDbEntity
  8
0
100
AcDbLine
 62
7
  6
CONTINUOUS
 10
17.0183550186
 20
16.0166124535
 11
17.0183550186
 21
15.5166124535
  0
LINE
  5
2FA
100
AcDbEntity
  8
0
100
AcDbLine
 62
7
  6
CONTINUOUS
 10
17.0183550186
 20
15.0166124535
 11
17.0183550186
 21
14.5166124535
  0
LINE
  5
2FB
100
AcDbEntity
  8
0
100
AcDbLine
 62
7
  6
CONTINUOUS
 10
17.0183550186
 20
14.0166124535
 11
17.0183550186
 21
13.5166124535
  0
LINE
  5
2FC
100
AcDbEntity
  8
0
100
AcDbLine
 62
7
  6
CONTINUOUS
 10
17.0183550186
 20
13.0166124535
 11
17.0183550186
 21
12.5166124535
  0
LINE
  5
2FD
100
AcDbEntity
  8
0
100
AcDbLine
 62
7
  6
CONTINUOUS
 10
17.0183550186
 20
12.0166124535
 11
17.0183550186
 21
11.5166124535
  0
LINE
  5
2FE
100
AcDbEntity
  8
0
100
AcDbLine
 62
7
  6
CONTINUOUS
 10
17.0183550186
 20
11.0166124535
 11
17.0183550186
 21
10.5166124535
  0
LINE
  5
2FF
100
AcDbEntity
  8
0
100
AcDbLine
 62
7
  6
CONTINUOUS
 10
17.0183550186
 20
10.0166124535
 11
17.0183550186
 21
9.5166124535
  0
LINE
  5
300
100
AcDbEntity
  8
0
100
AcDbLine
 62
7
  6
CONTINUOUS
 10
17.0183550186
 20
9.0166124535
 11
17.0183550186
 21
8.5166124535
  0
LINE
  5
301
100
AcDbEntity
  8
0
100
AcDbLine
 62
7
  6
CONTINUOUS
 10
17.0183550186
 20
8.0166124535
 11
17.0183550186
 21
7.5166124535
  0
LINE
  5
302
100
AcDbEntity
  8
0
100
AcDbLine
 62
7
  6
CONTINUOUS
 10
17.0183550186
 20
7.0166124535
 11
17.0183550186
 21
6.5166124535
  0
LINE
  5
303
100
AcDbEntity
  8
0
100
AcDbLine
 62
7
  6
CONTINUOUS
 10
17.0183550186
 20
6.0166124535
 11
17.0183550186
 21
5.5166124535
  0
LINE
  5
304
100
AcDbEntity
  8
0
100
AcDbLine
 62
7
  6
CONTINUOUS
 10
17.5183550186
 20
17.0166124535
 11
17.5183550186
 21
16.7666124535
  0
LINE
  5
305
100
AcDbEntity
  8
0
100
AcDbLine
 62
7
  6
CONTINUOUS
 10
17.5183550186
 20
5.5166124535
 11
17.5183550186
 21
5.7666124535
  0
LINE
  5
306
100
AcDbEntity
  8
0
100
AcDbLine
 62
7
  6
CONTINUOUS
 10
17.6933550186
 20
13.0786124535
 11
17.6933550186
 21
13.2046124535
  0
LINE
  5
307
100
AcDbEntity
  8
0
100
AcDbLine
 62
7
  6
CONTINUOUS
 10
26.0183550186
 20
11.5166124535
 11
25.7683550186
 21
11.5166124535
  0
LINE
  5
308
100
AcDbEntity
  8
0
100
AcDbLine
 62
7
  6
CONTINUOUS
 10
17.0183550186
 20
11.5166124535
 11
16.7683550186
 21
11.5166124535
  0
LINE
  5
309
100
AcDbEntity
  8
0
100
AcDbLine
 62
7
  6
CONTINUOUS
 10
8.0183550186
 20
11.5166124535
 11
7.7683550186
 21
11.5166124535
  0
LINE
  5
30A
100
AcDbEntity
  8
0
100
AcDbLine
 62
7
  6
CONTINUOUS
 10
5.5183550186
 20
11.5166124535
 11
5.7683550186
 21
11.5166124535
  0
LINE
  5
30B
100
AcDbEntity
  8
0
100
AcDbLine
 62
7
  6
CONTINUOUS
 10
14.5183550186
 20
11.5166124535
 11
14.7683550186
 21
11.5166124535
  0
LINE
  5
30C
100
AcDbEntity
  8
0
100
AcDbLine
 62
7
  6
CONTINUOUS
 10
23.5183550186
 20
11.5166124535
 11
23.7683550186
 21
11.5166124535
  0
LINE
  5
30D
100
AcDbEntity
  8
0
100
AcDbLine
 62
7
  6
CONTINUOUS
 10
28.0183550186
 20
11.5166124535
 11
28.2683550186
 21
11.5166124535
  0
LINE
  5
30E
100
AcDbEntity
  8
0
100
AcDbLine
 62
7
  6
CONTINUOUS
 10
28.2683550186
 20
12.0166124535
 11
28.0183550186
 21
12.0166124535
  0
LINE
  5
30F
100
AcDbEntity
  8
0
100
AcDbLine
 62
7
  6
CONTINUOUS
 10
23.7683550186
 20
12.0166124535
 11
23.5183550186
 21
12.0166124535
  0
LINE
  5
310
100
AcDbEntity
  8
0
100
AcDbLine
 62
7
  6
CONTINUOUS
 10
14.7683550186
 20
12.0166124535
 11
14.5183550186
 21
12.0166124535
  0
LINE
  5
311
100
AcDbEntity
  8
0
100
AcDbLine
 62
7
  6
CONTINUOUS
 10
5.7683550186
 20
12.0166124535
 11
5.5183550186
 21
12.0166124535
  0
LINE
  5
312
100
AcDbEntity
  8
0
100
AcDbLine
 62
7
  6
CONTINUOUS
 10
7.7683550186
 20
12.0166124535
 11
8.0183550186
 21
12.0166124535
  0
LINE
  5
313
100
AcDbEntity
  8
0
100
AcDbLine
 62
7
  6
CONTINUOUS
 10
16.7683550186
 20
12.0166124535
 11
17.0183550186
 21
12.0166124535
  0
LINE
  5
314
100
AcDbEntity
  8
0
100
AcDbLine
 62
7
  6
CONTINUOUS
 10
25.7683550186
 20
12.0166124535
 11
26.0183550186
 21
12.0166124535
  0
LINE
  5
315
100
AcDbEntity
  8
0
100
AcDbLine
 62
7
  6
CONTINUOUS
 10
19.035414619
 20
10.8800970388
 11
18.9262954181
 21
10.9430970388
  0
LINE
  5
316
100
AcDbEntity
  8
0
100
AcDbLine
 62
7
  6
CONTINUOUS
 10
19.0262954181
 20
11.1163021195
 11
19.135414619
 21
11.0533021195
  0
LINE
  5
317
100
AcDbEntity
  8
0
100
AcDbLine
 62
7
  6
CONTINUOUS
 10
17.8933550186
 20
13.2046124535
 11
17.8933550186
 21
13.0786124535
  0
LINE
  5
318
100
AcDbEntity
  8
0
100
AcDbLine
 62
7
  6
CONTINUOUS
 10
18.0183550186
 20
5.7666124535
 11
18.0183550186
 21
5.5166124535
  0
LINE
  5
319
100
AcDbEntity
  8
0
100
AcDbLine
 62
7
  6
CONTINUOUS
 10
18.0183550186
 20
16.7666124535
 11
18.0183550186
 21
17.0166124535
  0
LINE
  5
31A
100
AcDbEntity
  8
0
100
AcDbLine
 62
7
  6
CONTINUOUS
 10
18.5183550186
 20
17.0166124535
 11
18.5183550186
 21
16.7666124535
  0
LINE
  5
31B
100
AcDbEntity
  8
0
100
AcDbLine
 62
7
  6
CONTINUOUS
 10
18.5183550186
 20
5.5166124535
 11
18.5183550186
 21
5.7666124535
  0
LINE
  5
31C
100
AcDbEntity
  8
0
100
AcDbLine
 62
7
  6
CONTINUOUS
 10
26.0183550186
 20
12.5166124535
 11
25.7683550186
 21
12.5166124535
  0
LINE
  5
31D
100
AcDbEntity
  8
0
100
AcDbLine
 62
7
  6
CONTINUOUS
 10
17.0183550186
 20
12.5166124535
 11
16.7683550186
 21
12.5166124535
  0
LINE
  5
31E
100
AcDbEntity
  8
0
100
AcDbLine
 62
7
  6
CONTINUOUS
 10
8.0183550186
 20
12.5166124535
 11
7.7683550186
 21
12.5166124535
  0
LINE
  5
31F
100
AcDbEntity
  8
0
100
AcDbLine
 62
7
  6
CONTINUOUS
 10
5.5183550186
 20
12.5166124535
 11
5.7683550186
 21
12.5166124535
  0
LINE
  5
320
100
AcDbEntity
  8
0
100
AcDbLine
 62
7
  6
CONTINUOUS
 10
14.5183550186
 20
12.5166124535
 11
14.7683550186
 21
12.5166124535
  0
LINE
  5
321
100
AcDbEntity
  8
0
100
AcDbLine
 62
7
  6
CONTINUOUS
 10
23.5183550186
 20
12.5166124535
 11
23.7683550186
 21
12.5166124535
  0
LINE
  5
322
100
AcDbEntity
  8
0
100
AcDbLine
 62
7
  6
CONTINUOUS
 10
28.0183550186
 20
12.5166124535
 11
28.2683550186
 21
12.5166124535
  0
LINE
  5
323
100
AcDbEntity
  8
0
100
AcDbLine
 62
7
  6
CONTINUOUS
 10
28.2683550186
 20
13.0166124535
 11
28.0183550186
 21
13.0166124535
  0
LINE
  5
324
100
AcDbEntity
  8
0
100
AcDbLine
 62
7
  6
CONTINUOUS
 10
23.7683550186
 20
13.0166124535
 11
23.5183550186
 21
13.0166124535
  0
LINE
  5
325
100
AcDbEntity
  8
0
100
AcDbLine
 62
7
  6
CONTINUOUS
 10
14.7683550186
 20
13.0166124535
 11
14.5183550186
 21
13.0166124535
  0
LINE
  5
326
100
AcDbEntity
  8
0
100
AcDbLine
 62
7
  6
CONTINUOUS
 10
5.7683550186
 20
13.0166124535
 11
5.5183550186
 21
13.0166124535
  0
LINE
  5
327
100
AcDbEntity
  8
0
100
AcDbLine
 62
7
  6
CONTINUOUS
 10
7.7683550186
 20
13.0166124535
 11
8.0183550186
 21
13.0166124535
  0
LINE
  5
328
100
AcDbEntity
  8
0
100
AcDbLine
 62
7
  6
CONTINUOUS
 10
16.7683550186
 20
13.0166124535
 11
17.0183550186
 21
13.0166124535
  0
LINE
  5
329
100
AcDbEntity
  8
0
100
AcDbLine
 62
7
  6
CONTINUOUS
 10
25.7683550186
 20
13.0166124535
 11
26.0183550186
 21
13.0166124535
  0
LINE
  5
32A
100
AcDbEntity
  8
0
100
AcDbLine
 62
7
  6
CONTINUOUS
 10
17.6933550186
 20
13.0786124535
 11
17.8933550186
 21
13.0786124535
  0
LINE
  5
32B
100
AcDbEntity
  8
0
100
AcDbLine
 62
7
  6
CONTINUOUS
 10
22.6433550186
 20
13.0786124535
 11
22.8433550186
 21
13.0786124535
  0
LINE
  5
32C
100
AcDbEntity
  8
0
100
AcDbLine
 62
7
  6
CONTINUOUS
 10
19.0183550186
 20
5.7666124535
 11
19.0183550186
 21
5.5166124535
  0
LINE
  5
32D
100
AcDbEntity
  8
0
100
AcDbLine
 62
7
  6
CONTINUOUS
 10
19.0183550186
 20
16.7666124535
 11
19.0183550186
 21
17.0166124535
  0
LINE
  5
32E
100
AcDbEntity
  8
0
100
AcDbLine
 62
7
  6
CONTINUOUS
 10
19.5183550186
 20
17.0166124535
 11
19.5183550186
 21
16.7666124535
  0
LINE
  5
32F
100
AcDbEntity
  8
0
100
AcDbLine
 62
7
  6
CONTINUOUS
 10
19.5183550186
 20
5.5166124535
 11
19.5183550186
 21
5.7666124535
  0
LINE
  5
330
100
AcDbEntity
  8
0
100
AcDbLine
 62
7
  6
CONTINUOUS
 10
21.5012954181
 20
15.4031278683
 11
21.4012954181
 21
15.2299227875
  0
LINE
  5
331
100
AcDbEntity
  8
0
100
AcDbLine
 62
7
  6
CONTINUOUS
 10
19.0262954181
 20
11.1163021195
 11
18.9262954181
 21
10.9430970388
  0
LINE
  5
332
100
AcDbEntity
  8
0
100
AcDbLine
 62
7
  6
CONTINUOUS
 10
19.035414619
 20
10.8800970388
 11
19.135414619
 21
11.0533021195
  0
LINE
  5
333
100
AcDbEntity
  8
0
100
AcDbLine
 62
7
  6
CONTINUOUS
 10
21.510414619
 20
15.1669227875
 11
21.610414619
 21
15.3401278683
  0
LINE
  5
334
100
AcDbEntity
  8
0
100
AcDbLine
 62
7
  6
CONTINUOUS
 10
21.4012954181
 20
11.0533021195
 11
21.510414619
 21
11.1163021195
  0
LINE
  5
335
100
AcDbEntity
  8
0
100
AcDbLine
 62
7
  6
CONTINUOUS
 10
21.610414619
 20
10.9430970388
 11
21.5012954181
 21
10.8800970388
  0
LINE
  5
336
100
AcDbEntity
  8
0
100
AcDbLine
 62
7
  6
CONTINUOUS
 10
22.8433550186
 20
13.2046124535
 11
22.6433550186
 21
13.2046124535
  0
LINE
  5
337
100
AcDbEntity
  8
0
100
AcDbLine
 62
7
  6
CONTINUOUS
 10
17.8933550186
 20
13.2046124535
 11
17.6933550186
 21
13.2046124535
  0
LINE
  5
338
100
AcDbEntity
  8
0
100
AcDbLine
 62
7
  6
CONTINUOUS
 10
26.0183550186
 20
13.5166124535
 11
25.7683550186
 21
13.5166124535
  0
LINE
  5
339
100
AcDbEntity
  8
0
100
AcDbLine
 62
7
  6
CONTINUOUS
 10
17.0183550186
 20
13.5166124535
 11
16.7683550186
 21
13.5166124535
  0
LINE
  5
33A
100
AcDbEntity
  8
0
100
AcDbLine
 62
7
  6
CONTINUOUS
 10
8.0183550186
 20
13.5166124535
 11
7.7683550186
 21
13.5166124535
  0
LINE
  5
33B
100
AcDbEntity
  8
0
100
AcDbLine
 62
7
  6
CONTINUOUS
 10
5.5183550186
 20
13.5166124535
 11
5.7683550186
 21
13.5166124535
  0
LINE
  5
33C
100
AcDbEntity
  8
0
100
AcDbLine
 62
7
  6
CONTINUOUS
 10
14.5183550186
 20
13.5166124535
 11
14.7683550186
 21
13.5166124535
  0
LINE
  5
33D
100
AcDbEntity
  8
0
100
AcDbLine
 62
7
  6
CONTINUOUS
 10
23.5183550186
 20
13.5166124535
 11
23.7683550186
 21
13.5166124535
  0
LINE
  5
33E
100
AcDbEntity
  8
0
100
AcDbLine
 62
7
  6
CONTINUOUS
 10
28.0183550186
 20
13.5166124535
 11
28.2683550186
 21
13.5166124535
  0
LINE
  5
33F
100
AcDbEntity
  8
0
100
AcDbLine
 62
7
  6
CONTINUOUS
 10
20.0183550186
 20
5.7666124535
 11
20.0183550186
 21
5.5166124535
  0
LINE
  5
340
100
AcDbEntity
  8
0
100
AcDbLine
 62
7
  6
CONTINUOUS
 10
20.0183550186
 20
16.7666124535
 11
20.0183550186
 21
17.0166124535
  0
LINE
  5
341
100
AcDbEntity
  8
0
100
AcDbLine
 62
7
  6
CONTINUOUS
 10
28.2683550186
 20
14.0166124535
 11
28.0183550186
 21
14.0166124535
  0
LINE
  5
342
100
AcDbEntity
  8
0
100
AcDbLine
 62
7
  6
CONTINUOUS
 10
23.7683550186
 20
14.0166124535
 11
23.5183550186
 21
14.0166124535
  0
LINE
  5
343
100
AcDbEntity
  8
0
100
AcDbLine
 62
7
  6
CONTINUOUS
 10
14.7683550186
 20
14.0166124535
 11
14.5183550186
 21
14.0166124535
  0
LINE
  5
344
100
AcDbEntity
  8
0
100
AcDbLine
 62
7
  6
CONTINUOUS
 10
5.7683550186
 20
14.0166124535
 11
5.5183550186
 21
14.0166124535
  0
LINE
  5
345
100
AcDbEntity
  8
0
100
AcDbLine
 62
7
  6
CONTINUOUS
 10
7.7683550186
 20
14.0166124535
 11
8.0183550186
 21
14.0166124535
  0
LINE
  5
346
100
AcDbEntity
  8
0
100
AcDbLine
 62
7
  6
CONTINUOUS
 10
16.7683550186
 20
14.0166124535
 11
17.0183550186
 21
14.0166124535
  0
LINE
  5
347
100
AcDbEntity
  8
0
100
AcDbLine
 62
7
  6
CONTINUOUS
 10
25.7683550186
 20
14.0166124535
 11
26.0183550186
 21
14.0166124535
  0
LINE
  5
348
100
AcDbEntity
  8
0
100
AcDbLine
 62
7
  6
CONTINUOUS
 10
26.0183550186
 20
14.5166124535
 11
25.7683550186
 21
14.5166124535
  0
LINE
  5
349
100
AcDbEntity
  8
0
100
AcDbLine
 62
7
  6
CONTINUOUS
 10
17.0183550186
 20
14.5166124535
 11
16.7683550186
 21
14.5166124535
  0
LINE
  5
34A
100
AcDbEntity
  8
0
100
AcDbLine
 62
7
  6
CONTINUOUS
 10
8.0183550186
 20
14.5166124535
 11
7.7683550186
 21
14.5166124535
  0
LINE
  5
34B
100
AcDbEntity
  8
0
100
AcDbLine
 62
7
  6
CONTINUOUS
 10
5.5183550186
 20
14.5166124535
 11
5.7683550186
 21
14.5166124535
  0
LINE
  5
34C
100
AcDbEntity
  8
0
100
AcDbLine
 62
7
  6
CONTINUOUS
 10
14.5183550186
 20
14.5166124535
 11
14.7683550186
 21
14.5166124535
  0
LINE
  5
34D
100
AcDbEntity
  8
0
100
AcDbLine
 62
7
  6
CONTINUOUS
 10
23.5183550186
 20
14.5166124535
 11
23.7683550186
 21
14.5166124535
  0
LINE
  5
34E
100
AcDbEntity
  8
0
100
AcDbLine
 62
7
  6
CONTINUOUS
 10
28.0183550186
 20
14.5166124535
 11
28.2683550186
 21
14.5166124535
  0
LINE
  5
34F
100
AcDbEntity
  8
0
100
AcDbLine
 62
7
  6
CONTINUOUS
 10
20.5183550186
 20
17.0166124535
 11
20.5183550186
 21
16.7666124535
  0
LINE
  5
350
100
AcDbEntity
  8
0
100
AcDbLine
 62
7
  6
CONTINUOUS
 10
20.5183550186
 20
5.5166124535
 11
20.5183550186
 21
5.7666124535
  0
LINE
  5
351
100
AcDbEntity
  8
0
100
AcDbLine
 62
7
  6
CONTINUOUS
 10
21.0183550186
 20
5.7666124535
 11
21.0183550186
 21
5.5166124535
  0
LINE
  5
352
100
AcDbEntity
  8
0
100
AcDbLine
 62
7
  6
CONTINUOUS
 10
21.0183550186
 20
16.7666124535
 11
21.0183550186
 21
17.0166124535
  0
LINE
  5
353
100
AcDbEntity
  8
0
100
AcDbLine
 62
7
  6
CONTINUOUS
 10
28.2683550186
 20
15.0166124535
 11
28.0183550186
 21
15.0166124535
  0
LINE
  5
354
100
AcDbEntity
  8
0
100
AcDbLine
 62
7
  6
CONTINUOUS
 10
23.7683550186
 20
15.0166124535
 11
23.5183550186
 21
15.0166124535
  0
LINE
  5
355
100
AcDbEntity
  8
0
100
AcDbLine
 62
7
  6
CONTINUOUS
 10
14.7683550186
 20
15.0166124535
 11
14.5183550186
 21
15.0166124535
  0
LINE
  5
356
100
AcDbEntity
  8
0
100
AcDbLine
 62
7
  6
CONTINUOUS
 10
5.7683550186
 20
15.0166124535
 11
5.5183550186
 21
15.0166124535
  0
LINE
  5
357
100
AcDbEntity
  8
0
100
AcDbLine
 62
7
  6
CONTINUOUS
 10
7.7683550186
 20
15.0166124535
 11
8.0183550186
 21
15.0166124535
  0
LINE
  5
358
100
AcDbEntity
  8
0
100
AcDbLine
 62
7
  6
CONTINUOUS
 10
16.7683550186
 20
15.0166124535
 11
17.0183550186
 21
15.0166124535
  0
LINE
  5
359
100
AcDbEntity
  8
0
100
AcDbLine
 62
7
  6
CONTINUOUS
 10
25.7683550186
 20
15.0166124535
 11
26.0183550186
 21
15.0166124535
  0
LINE
  5
35A
100
AcDbEntity
  8
0
100
AcDbLine
 62
7
  6
CONTINUOUS
 10
26.0183550186
 20
15.5166124535
 11
25.7683550186
 21
15.5166124535
  0
LINE
  5
35B
100
AcDbEntity
  8
0
100
AcDbLine
 62
7
  6
CONTINUOUS
 10
17.0183550186
 20
15.5166124535
 11
16.7683550186
 21
15.5166124535
  0
LINE
  5
35C
100
AcDbEntity
  8
0
100
AcDbLine
 62
7
  6
CONTINUOUS
 10
8.0183550186
 20
15.5166124535
 11
7.7683550186
 21
15.5166124535
  0
LINE
  5
35D
100
AcDbEntity
  8
0
100
AcDbLine
 62
7
  6
CONTINUOUS
 10
5.5183550186
 20
15.5166124535
 11
5.7683550186
 21
15.5166124535
  0
LINE
  5
35E
100
AcDbEntity
  8
0
100
AcDbLine
 62
7
  6
CONTINUOUS
 10
14.5183550186
 20
15.5166124535
 11
14.7683550186
 21
15.5166124535
  0
LINE
  5
35F
100
AcDbEntity
  8
0
100
AcDbLine
 62
7
  6
CONTINUOUS
 10
23.5183550186
 20
15.5166124535
 11
23.7683550186
 21
15.5166124535
  0
LINE
  5
360
100
AcDbEntity
  8
0
100
AcDbLine
 62
7
  6
CONTINUOUS
 10
28.0183550186
 20
15.5166124535
 11
28.2683550186
 21
15.5166124535
  0
LINE
  5
361
100
AcDbEntity
  8
0
100
AcDbLine
 62
7
  6
CONTINUOUS
 10
18.9262954181
 20
15.3401278683
 11
19.0262954181
 21
15.1669227875
  0
LINE
  5
362
100
AcDbEntity
  8
0
100
AcDbLine
 62
7
  6
CONTINUOUS
 10
21.4012954181
 20
11.0533021195
 11
21.5012954181
 21
10.8800970388
  0
LINE
  5
363
100
AcDbEntity
  8
0
100
AcDbLine
 62
7
  6
CONTINUOUS
 10
21.610414619
 20
10.9430970388
 11
21.510414619
 21
11.1163021195
  0
LINE
  5
364
100
AcDbEntity
  8
0
100
AcDbLine
 62
7
  6
CONTINUOUS
 10
19.135414619
 20
15.2299227875
 11
19.035414619
 21
15.4031278683
  0
LINE
  5
365
100
AcDbEntity
  8
0
100
AcDbLine
 62
7
  6
CONTINUOUS
 10
21.5183550186
 20
17.0166124535
 11
21.5183550186
 21
16.7666124535
  0
LINE
  5
366
100
AcDbEntity
  8
0
100
AcDbLine
 62
7
  6
CONTINUOUS
 10
21.5183550186
 20
5.5166124535
 11
21.5183550186
 21
5.7666124535
  0
LINE
  5
367
100
AcDbEntity
  8
0
100
AcDbLine
 62
7
  6
CONTINUOUS
 10
22.0183550186
 20
5.7666124535
 11
22.0183550186
 21
5.5166124535
  0
LINE
  5
368
100
AcDbEntity
  8
0
100
AcDbLine
 62
7
  6
CONTINUOUS
 10
22.0183550186
 20
16.7666124535
 11
22.0183550186
 21
17.0166124535
  0
LINE
  5
369
100
AcDbEntity
  8
0
100
AcDbLine
 62
7
  6
CONTINUOUS
 10
28.2683550186
 20
16.0166124535
 11
28.0183550186
 21
16.0166124535
  0
LINE
  5
36A
100
AcDbEntity
  8
0
100
AcDbLine
 62
7
  6
CONTINUOUS
 10
23.7683550186
 20
16.0166124535
 11
23.5183550186
 21
16.0166124535
  0
LINE
  5
36B
100
AcDbEntity
  8
0
100
AcDbLine
 62
7
  6
CONTINUOUS
 10
14.7683550186
 20
16.0166124535
 11
14.5183550186
 21
16.0166124535
  0
LINE
  5
36C
100
AcDbEntity
  8
0
100
AcDbLine
 62
7
  6
CONTINUOUS
 10
8.0183550186
 20
16.0166124535
 11
7.5183550186
 21
16.0166124535
  0
LINE
  5
36D
100
AcDbEntity
  8
0
100
AcDbLine
 62
7
  6
CONTINUOUS
 10
7.0183550186
 20
16.0166124535
 11
6.5183550186
 21
16.0166124535
  0
LINE
  5
36E
100
AcDbEntity
  8
0
100
AcDbLine
 62
7
  6
CONTINUOUS
 10
6.0183550186
 20
16.0166124535
 11
5.5183550186
 21
16.0166124535
  0
LINE
  5
36F
100
AcDbEntity
  8
0
100
AcDbLine
 62
7
  6
CONTINUOUS
 10
16.7683550186
 20
16.0166124535
 11
17.0183550186
 21
16.0166124535
  0
LINE
  5
370
100
AcDbEntity
  8
0
100
AcDbLine
 62
7
  6
CONTINUOUS
 10
25.7683550186
 20
16.0166124535
 11
26.0183550186
 21
16.0166124535
  0
LINE
  5
371
100
AcDbEntity
  8
0
100
AcDbLine
 62
7
  6
CONTINUOUS
 10
6.0183550186
 20
16.2666124535
 11
6.5183550186
 21
16.2666124535
  0
LINE
  5
372
100
AcDbEntity
  8
0
100
AcDbLine
 62
7
  6
CONTINUOUS
 10
7.0183550186
 20
16.2666124535
 11
7.5183550186
 21
16.2666124535
  0
LINE
  5
373
100
AcDbEntity
  8
0
100
AcDbLine
 62
7
  6
CONTINUOUS
 10
22.5183550186
 20
17.0166124535
 11
22.5183550186
 21
16.7666124535
  0
LINE
  5
374
100
AcDbEntity
  8
0
100
AcDbLine
 62
7
  6
CONTINUOUS
 10
22.5183550186
 20
5.5166124535
 11
22.5183550186
 21
5.7666124535
  0
LINE
  5
375
100
AcDbEntity
  8
0
100
AcDbLine
 62
7
  6
CONTINUOUS
 10
22.6433550186
 20
13.0786124535
 11
22.6433550186
 21
13.2046124535
  0
LINE
  5
376
100
AcDbEntity
  8
0
100
AcDbLine
 62
7
  6
CONTINUOUS
 10
22.8433550186
 20
13.2046124535
 11
22.8433550186
 21
13.0786124535
  0
LINE
  5
377
100
AcDbEntity
  8
0
100
AcDbLine
 62
7
  6
CONTINUOUS
 10
28.2683550186
 20
16.5166124535
 11
27.7683550186
 21
16.5166124535
  0
LINE
  5
378
100
AcDbEntity
  8
0
100
AcDbLine
 62
7
  6
CONTINUOUS
 10
27.2683550186
 20
16.5166124535
 11
26.7683550186
 21
16.5166124535
  0
LINE
  5
379
100
AcDbEntity
  8
0
100
AcDbLine
 62
7
  6
CONTINUOUS
 10
26.2683550186
 20
16.5166124535
 11
25.7683550186
 21
16.5166124535
  0
LINE
  5
37A
100
AcDbEntity
  8
0
100
AcDbLine
 62
7
  6
CONTINUOUS
 10
17.0183550186
 20
16.5166124535
 11
16.7683550186
 21
16.5166124535
  0
LINE
  5
37B
100
AcDbEntity
  8
0
100
AcDbLine
 62
7
  6
CONTINUOUS
 10
8.0183550186
 20
16.5166124535
 11
7.7683550186
 21
16.5166124535
  0
LINE
  5
37C
100
AcDbEntity
  8
0
100
AcDbLine
 62
7
  6
CONTINUOUS
 10
14.5183550186
 20
16.5166124535
 11
14.7683550186
 21
16.5166124535
  0
LINE
  5
37D
100
AcDbEntity
  8
0
100
AcDbLine
 62
7
  6
CONTINUOUS
 10
23.5183550186
 20
16.5166124535
 11
23.7683550186
 21
16.5166124535
  0
LINE
  5
37E
100
AcDbEntity
  8
0
100
AcDbLine
 62
7
  6
CONTINUOUS
 10
23.5183550186
 20
16.7666124535
 11
23.0183550186
 21
16.7666124535
  0
LINE
  5
37F
100
AcDbEntity
  8
0
100
AcDbLine
 62
7
  6
CONTINUOUS
 10
22.5183550186
 20
16.7666124535
 11
22.0183550186
 21
16.7666124535
  0
LINE
  5
380
100
AcDbEntity
  8
0
100
AcDbLine
 62
7
  6
CONTINUOUS
 10
21.5183550186
 20
16.7666124535
 11
21.0183550186
 21
16.7666124535
  0
LINE
  5
381
100
AcDbEntity
  8
0
100
AcDbLine
 62
7
  6
CONTINUOUS
 10
20.5183550186
 20
16.7666124535
 11
20.0183550186
 21
16.7666124535
  0
LINE
  5
382
100
AcDbEntity
  8
0
100
AcDbLine
 62
7
  6
CONTINUOUS
 10
19.5183550186
 20
16.7666124535
 11
19.0183550186
 21
16.7666124535
  0
LINE
  5
383
100
AcDbEntity
  8
0
100
AcDbLine
 62
7
  6
CONTINUOUS
 10
18.5183550186
 20
16.7666124535
 11
18.0183550186
 21
16.7666124535
  0
LINE
  5
384
100
AcDbEntity
  8
0
100
AcDbLine
 62
7
  6
CONTINUOUS
 10
17.5183550186
 20
16.7666124535
 11
17.0183550186
 21
16.7666124535
  0
LINE
  5
385
100
AcDbEntity
  8
0
100
AcDbLine
 62
7
  6
CONTINUOUS
 10
14.5183550186
 20
16.7666124535
 11
14.0183550186
 21
16.7666124535
  0
LINE
  5
386
100
AcDbEntity
  8
0
100
AcDbLine
 62
7
  6
CONTINUOUS
 10
13.5183550186
 20
16.7666124535
 11
13.0183550186
 21
16.7666124535
  0
LINE
  5
387
100
AcDbEntity
  8
0
100
AcDbLine
 62
7
  6
CONTINUOUS
 10
12.5183550186
 20
16.7666124535
 11
12.0183550186
 21
16.7666124535
  0
LINE
  5
388
100
AcDbEntity
  8
0
100
AcDbLine
 62
7
  6
CONTINUOUS
 10
11.5183550186
 20
16.7666124535
 11
11.0183550186
 21
16.7666124535
  0
LINE
  5
389
100
AcDbEntity
  8
0
100
AcDbLine
 62
7
  6
CONTINUOUS
 10
10.5183550186
 20
16.7666124535
 11
10.0183550186
 21
16.7666124535
  0
LINE
  5
38A
100
AcDbEntity
  8
0
100
AcDbLine
 62
7
  6
CONTINUOUS
 10
9.5183550186
 20
16.7666124535
 11
9.0183550186
 21
16.7666124535
  0
LINE
  5
38B
100
AcDbEntity
  8
0
100
AcDbLine
 62
7
  6
CONTINUOUS
 10
8.5183550186
 20
16.7666124535
 11
8.0183550186
 21
16.7666124535
  0
LINE
  5
38C
100
AcDbEntity
  8
0
100
AcDbLine
 62
7
  6
CONTINUOUS
 10
15.0183550186
 20
16.7666124535
 11
15.5183550186
 21
16.7666124535
  0
LINE
  5
38D
100
AcDbEntity
  8
0
100
AcDbLine
 62
7
  6
CONTINUOUS
 10
16.0183550186
 20
16.7666124535
 11
16.5183550186
 21
16.7666124535
  0
LINE
  5
38E
100
AcDbEntity
  8
0
100
AcDbLine
 62
7
  6
CONTINUOUS
 10
24.0183550186
 20
16.7666124535
 11
24.5183550186
 21
16.7666124535
  0
LINE
  5
38F
100
AcDbEntity
  8
0
100
AcDbLine
 62
7
  6
CONTINUOUS
 10
25.0183550186
 20
16.7666124535
 11
25.5183550186
 21
16.7666124535
  0
LINE
  5
390
100
AcDbEntity
  8
0
100
AcDbLine
 62
7
  6
CONTINUOUS
 10
26.2683550186
 20
16.7666124535
 11
26.7683550186
 21
16.7666124535
  0
LINE
  5
391
100
AcDbEntity
  8
0
100
AcDbLine
 62
7
  6
CONTINUOUS
 10
27.2683550186
 20
16.7666124535
 11
27.7683550186
 21
16.7666124535
  0
LINE
  5
392
100
AcDbEntity
  8
0
100
AcDbLine
 62
7
  6
CONTINUOUS
 10
26.0183550186
 20
17.0166124535
 11
25.5183550186
 21
17.0166124535
  0
LINE
  5
393
100
AcDbEntity
  8
0
100
AcDbLine
 62
7
  6
CONTINUOUS
 10
25.0183550186
 20
17.0166124535
 11
24.5183550186
 21
17.0166124535
  0
LINE
  5
394
100
AcDbEntity
  8
0
100
AcDbLine
 62
7
  6
CONTINUOUS
 10
24.0183550186
 20
17.0166124535
 11
23.5183550186
 21
17.0166124535
  0
LINE
  5
395
100
AcDbEntity
  8
0
100
AcDbLine
 62
7
  6
CONTINUOUS
 10
23.0183550186
 20
17.0166124535
 11
22.5183550186
 21
17.0166124535
  0
LINE
  5
396
100
AcDbEntity
  8
0
100
AcDbLine
 62
7
  6
CONTINUOUS
 10
22.0183550186
 20
17.0166124535
 11
21.5183550186
 21
17.0166124535
  0
LINE
  5
397
100
AcDbEntity
  8
0
100
AcDbLine
 62
7
  6
CONTINUOUS
 10
21.0183550186
 20
17.0166124535
 11
20.5183550186
 21
17.0166124535
  0
LINE
  5
398
100
AcDbEntity
  8
0
100
AcDbLine
 62
7
  6
CONTINUOUS
 10
20.0183550186
 20
17.0166124535
 11
19.5183550186
 21
17.0166124535
  0
LINE
  5
399
100
AcDbEntity
  8
0
100
AcDbLine
 62
7
  6
CONTINUOUS
 10
19.0183550186
 20
17.0166124535
 11
18.5183550186
 21
17.0166124535
  0
LINE
  5
39A
100
AcDbEntity
  8
0
100
AcDbLine
 62
7
  6
CONTINUOUS
 10
18.0183550186
 20
17.0166124535
 11
17.5183550186
 21
17.0166124535
  0
LINE
  5
39B
100
AcDbEntity
  8
0
100
AcDbLine
 62
7
  6
CONTINUOUS
 10
17.0183550186
 20
17.0166124535
 11
16.5183550186
 21
17.0166124535
  0
LINE
  5
39C
100
AcDbEntity
  8
0
100
AcDbLine
 62
7
  6
CONTINUOUS
 10
16.0183550186
 20
17.0166124535
 11
15.5183550186
 21
17.0166124535
  0
LINE
  5
39D
100
AcDbEntity
  8
0
100
AcDbLine
 62
7
  6
CONTINUOUS
 10
15.0183550186
 20
17.0166124535
 11
14.5183550186
 21
17.0166124535
  0
LINE
  5
39E
100
AcDbEntity
  8
0
100
AcDbLine
 62
7
  6
CONTINUOUS
 10
14.0183550186
 20
17.0166124535
 11
13.5183550186
 21
17.0166124535
  0
LINE
  5
39F
100
AcDbEntity
  8
0
100
AcDbLine
 62
7
  6
CONTINUOUS
 10
13.0183550186
 20
17.0166124535
 11
12.5183550186
 21
17.0166124535
  0
LINE
  5
3A0
100
AcDbEntity
  8
0
100
AcDbLine
 62
7
  6
CONTINUOUS
 10
12.0183550186
 20
17.0166124535
 11
11.5183550186
 21
17.0166124535
  0
LINE
  5
3A1
100
AcDbEntity
  8
0
100
AcDbLine
 62
7
  6
CONTINUOUS
 10
11.0183550186
 20
17.0166124535
 11
10.5183550186
 21
17.0166124535
  0
LINE
  5
3A2
100
AcDbEntity
  8
0
100
AcDbLine
 62
7
  6
CONTINUOUS
 10
10.0183550186
 20
17.0166124535
 11
9.5183550186
 21
17.0166124535
  0
LINE
  5
3A3
100
AcDbEntity
  8
0
100
AcDbLine
 62
7
  6
CONTINUOUS
 10
9.0183550186
 20
17.0166124535
 11
8.5183550186
 21
17.0166124535
  0
LINE
  5
3A4
100
AcDbEntity
  8
0
100
AcDbLine
 62
7
  6
CONTINUOUS
 10
21.510414619
 20
15.1669227875
 11
21.4012954181
 21
15.2299227875
  0
LINE
  5
3A5
100
AcDbEntity
  8
0
100
AcDbLine
 62
7
  6
CONTINUOUS
 10
21.5012954181
 20
15.4031278683
 11
21.610414619
 21
15.3401278683
  0
LINE
  5
3A6
100
AcDbEntity
  8
0
100
AcDbLine
 62
7
  6
CONTINUOUS
 10
23.0183550186
 20
5.7666124535
 11
23.0183550186
 21
5.5166124535
  0
LINE
  5
3A7
100
AcDbEntity
  8
0
100
AcDbLine
 62
7
  6
CONTINUOUS
 10
23.0183550186
 20
16.7666124535
 11
23.0183550186
 21
17.0166124535
  0
LINE
  5
3A8
100
AcDbEntity
  8
0
100
AcDbLine
 62
7
  6
CONTINUOUS
 10
23.5183550186
 20
17.0166124535
 11
23.5183550186
 21
16.5166124535
  0
LINE
  5
3A9
100
AcDbEntity
  8
0
100
AcDbLine
 62
7
  6
CONTINUOUS
 10
23.5183550186
 20
16.0166124535
 11
23.5183550186
 21
15.5166124535
  0
LINE
  5
3AA
100
AcDbEntity
  8
0
100
AcDbLine
 62
7
  6
CONTINUOUS
 10
23.5183550186
 20
15.0166124535
 11
23.5183550186
 21
14.5166124535
  0
LINE
  5
3AB
100
AcDbEntity
  8
0
100
AcDbLine
 62
7
  6
CONTINUOUS
 10
23.5183550186
 20
14.0166124535
 11
23.5183550186
 21
13.5166124535
  0
LINE
  5
3AC
100
AcDbEntity
  8
0
100
AcDbLine
 62
7
  6
CONTINUOUS
 10
23.5183550186
 20
13.0166124535
 11
23.5183550186
 21
12.5166124535
  0
LINE
  5
3AD
100
AcDbEntity
  8
0
100
AcDbLine
 62
7
  6
CONTINUOUS
 10
23.5183550186
 20
12.0166124535
 11
23.5183550186
 21
11.5166124535
  0
LINE
  5
3AE
100
AcDbEntity
  8
0
100
AcDbLine
 62
7
  6
CONTINUOUS
 10
23.5183550186
 20
11.0166124535
 11
23.5183550186
 21
10.5166124535
  0
LINE
  5
3AF
100
AcDbEntity
  8
0
100
AcDbLine
 62
7
  6
CONTINUOUS
 10
23.5183550186
 20
10.0166124535
 11
23.5183550186
 21
9.5166124535
  0
LINE
  5
3B0
100
AcDbEntity
  8
0
100
AcDbLine
 62
7
  6
CONTINUOUS
 10
23.5183550186
 20
9.0166124535
 11
23.5183550186
 21
8.5166124535
  0
LINE
  5
3B1
100
AcDbEntity
  8
0
100
AcDbLine
 62
7
  6
CONTINUOUS
 10
23.5183550186
 20
8.0166124535
 11
23.5183550186
 21
7.5166124535
  0
LINE
  5
3B2
100
AcDbEntity
  8
0
100
AcDbLine
 62
7
  6
CONTINUOUS
 10
23.5183550186
 20
7.0166124535
 11
23.5183550186
 21
6.5166124535
  0
LINE
  5
3B3
100
AcDbEntity
  8
0
100
AcDbLine
 62
7
  6
CONTINUOUS
 10
23.5183550186
 20
6.0166124535
 11
23.5183550186
 21
5.5166124535
  0
LINE
  5
3B4
100
AcDbEntity
  8
0
100
AcDbLine
 62
7
  6
CONTINUOUS
 10
23.7683550186
 20
16.5166124535
 11
23.7683550186
 21
16.0166124535
  0
LINE
  5
3B5
100
AcDbEntity
  8
0
100
AcDbLine
 62
7
  6
CONTINUOUS
 10
23.7683550186
 20
15.5166124535
 11
23.7683550186
 21
15.0166124535
  0
LINE
  5
3B6
100
AcDbEntity
  8
0
100
AcDbLine
 62
7
  6
CONTINUOUS
 10
23.7683550186
 20
14.5166124535
 11
23.7683550186
 21
14.0166124535
  0
LINE
  5
3B7
100
AcDbEntity
  8
0
100
AcDbLine
 62
7
  6
CONTINUOUS
 10
23.7683550186
 20
13.5166124535
 11
23.7683550186
 21
13.0166124535
  0
LINE
  5
3B8
100
AcDbEntity
  8
0
100
AcDbLine
 62
7
  6
CONTINUOUS
 10
23.7683550186
 20
12.5166124535
 11
23.7683550186
 21
12.0166124535
  0
LINE
  5
3B9
100
AcDbEntity
  8
0
100
AcDbLine
 62
7
  6
CONTINUOUS
 10
23.7683550186
 20
11.5166124535
 11
23.7683550186
 21
11.0166124535
  0
LINE
  5
3BA
100
AcDbEntity
  8
0
100
AcDbLine
 62
7
  6
CONTINUOUS
 10
23.7683550186
 20
10.5166124535
 11
23.7683550186
 21
10.0166124535
  0
LINE
  5
3BB
100
AcDbEntity
  8
0
100
AcDbLine
 62
7
  6
CONTINUOUS
 10
23.7683550186
 20
9.5166124535
 11
23.7683550186
 21
9.0166124535
  0
LINE
  5
3BC
100
AcDbEntity
  8
0
100
AcDbLine
 62
7
  6
CONTINUOUS
 10
23.7683550186
 20
8.5166124535
 11
23.7683550186
 21
8.0166124535
  0
LINE
  5
3BD
100
AcDbEntity
  8
0
100
AcDbLine
 62
7
  6
CONTINUOUS
 10
23.7683550186
 20
7.5166124535
 11
23.7683550186
 21
7.0166124535
  0
LINE
  5
3BE
100
AcDbEntity
  8
0
100
AcDbLine
 62
7
  6
CONTINUOUS
 10
23.7683550186
 20
6.5166124535
 11
23.7683550186
 21
6.0166124535
  0
LINE
  5
3BF
100
AcDbEntity
  8
0
100
AcDbLine
 62
7
  6
CONTINUOUS
 10
24.0183550186
 20
17.0166124535
 11
24.0183550186
 21
16.7666124535
  0
LINE
  5
3C0
100
AcDbEntity
  8
0
100
AcDbLine
 62
7
  6
CONTINUOUS
 10
24.0183550186
 20
5.5166124535
 11
24.0183550186
 21
5.7666124535
  0
LINE
  5
3C1
100
AcDbEntity
  8
0
100
AcDbLine
 62
7
  6
CONTINUOUS
 10
24.5183550186
 20
17.0166124535
 11
24.5183550186
 21
16.7666124535
  0
LINE
  5
3C2
100
AcDbEntity
  8
0
100
AcDbLine
 62
7
  6
CONTINUOUS
 10
24.5183550186
 20
5.5166124535
 11
24.5183550186
 21
5.7666124535
  0
LINE
  5
3C3
100
AcDbEntity
  8
0
100
AcDbLine
 62
7
  6
CONTINUOUS
 10
25.0183550186
 20
17.0166124535
 11
25.0183550186
 21
16.7666124535
  0
LINE
  5
3C4
100
AcDbEntity
  8
0
100
AcDbLine
 62
7
  6
CONTINUOUS
 10
25.0183550186
 20
5.5166124535
 11
25.0183550186
 21
5.7666124535
  0
LINE
  5
3C5
100
AcDbEntity
  8
0
100
AcDbLine
 62
7
  6
CONTINUOUS
 10
25.5183550186
 20
17.0166124535
 11
25.5183550186
 21
16.7666124535
  0
LINE
  5
3C6
100
AcDbEntity
  8
0
100
AcDbLine
 62
7
  6
CONTINUOUS
 10
25.5183550186
 20
5.5166124535
 11
25.5183550186
 21
5.7666124535
  0
LINE
  5
3C7
100
AcDbEntity
  8
0
100
AcDbLine
 62
7
  6
CONTINUOUS
 10
25.7683550186
 20
16.5166124535
 11
25.7683550186
 21
16.0166124535
  0
LINE
  5
3C8
100
AcDbEntity
  8
0
100
AcDbLine
 62
7
  6
CONTINUOUS
 10
25.7683550186
 20
15.5166124535
 11
25.7683550186
 21
15.0166124535
  0
LINE
  5
3C9
100
AcDbEntity
  8
0
100
AcDbLine
 62
7
  6
CONTINUOUS
 10
25.7683550186
 20
14.5166124535
 11
25.7683550186
 21
14.0166124535
  0
LINE
  5
3CA
100
AcDbEntity
  8
0
100
AcDbLine
 62
7
  6
CONTINUOUS
 10
25.7683550186
 20
13.5166124535
 11
25.7683550186
 21
13.0166124535
  0
LINE
  5
3CB
100
AcDbEntity
  8
0
100
AcDbLine
 62
7
  6
CONTINUOUS
 10
25.7683550186
 20
12.5166124535
 11
25.7683550186
 21
12.0166124535
  0
LINE
  5
3CC
100
AcDbEntity
  8
0
100
AcDbLine
 62
7
  6
CONTINUOUS
 10
25.7683550186
 20
11.5166124535
 11
25.7683550186
 21
11.0166124535
  0
LINE
  5
3CD
100
AcDbEntity
  8
0
100
AcDbLine
 62
7
  6
CONTINUOUS
 10
25.7683550186
 20
10.5166124535
 11
25.7683550186
 21
10.0166124535
  0
LINE
  5
3CE
100
AcDbEntity
  8
0
100
AcDbLine
 62
7
  6
CONTINUOUS
 10
25.7683550186
 20
6.0166124535
 11
25.7683550186
 21
6.5166124535
  0
LINE
  5
3CF
100
AcDbEntity
  8
0
100
AcDbLine
 62
7
  6
CONTINUOUS
 10
25.7683550186
 20
7.0166124535
 11
25.7683550186
 21
7.5166124535
  0
LINE
  5
3D0
100
AcDbEntity
  8
0
100
AcDbLine
 62
7
  6
CONTINUOUS
 10
25.7683550186
 20
8.0166124535
 11
25.7683550186
 21
8.5166124535
  0
LINE
  5
3D1
100
AcDbEntity
  8
0
100
AcDbLine
 62
7
  6
CONTINUOUS
 10
25.7683550186
 20
9.0166124535
 11
25.7683550186
 21
9.5166124535
  0
LINE
  5
3D2
100
AcDbEntity
  8
0
100
AcDbLine
 62
7
  6
CONTINUOUS
 10
26.0183550186
 20
17.0166124535
 11
26.0183550186
 21
16.5166124535
  0
LINE
  5
3D3
100
AcDbEntity
  8
0
100
AcDbLine
 62
7
  6
CONTINUOUS
 10
26.0183550186
 20
16.0166124535
 11
26.0183550186
 21
15.5166124535
  0
LINE
  5
3D4
100
AcDbEntity
  8
0
100
AcDbLine
 62
7
  6
CONTINUOUS
 10
26.0183550186
 20
15.0166124535
 11
26.0183550186
 21
14.5166124535
  0
LINE
  5
3D5
100
AcDbEntity
  8
0
100
AcDbLine
 62
7
  6
CONTINUOUS
 10
26.0183550186
 20
14.0166124535
 11
26.0183550186
 21
13.5166124535
  0
LINE
  5
3D6
100
AcDbEntity
  8
0
100
AcDbLine
 62
7
  6
CONTINUOUS
 10
26.0183550186
 20
13.0166124535
 11
26.0183550186
 21
12.5166124535
  0
LINE
  5
3D7
100
AcDbEntity
  8
0
100
AcDbLine
 62
7
  6
CONTINUOUS
 10
26.0183550186
 20
12.0166124535
 11
26.0183550186
 21
11.5166124535
  0
LINE
  5
3D8
100
AcDbEntity
  8
0
100
AcDbLine
 62
7
  6
CONTINUOUS
 10
26.0183550186
 20
11.0166124535
 11
26.0183550186
 21
10.5166124535
  0
LINE
  5
3D9
100
AcDbEntity
  8
0
100
AcDbLine
 62
7
  6
CONTINUOUS
 10
26.0183550186
 20
10.0166124535
 11
26.0183550186
 21
9.5166124535
  0
LINE
  5
3DA
100
AcDbEntity
  8
0
100
AcDbLine
 62
7
  6
CONTINUOUS
 10
26.0183550186
 20
9.0166124535
 11
26.0183550186
 21
8.5166124535
  0
LINE
  5
3DB
100
AcDbEntity
  8
0
100
AcDbLine
 62
7
  6
CONTINUOUS
 10
26.0183550186
 20
8.0166124535
 11
26.0183550186
 21
7.5166124535
  0
LINE
  5
3DC
100
AcDbEntity
  8
0
100
AcDbLine
 62
7
  6
CONTINUOUS
 10
26.0183550186
 20
7.0166124535
 11
26.0183550186
 21
6.5166124535
  0
LINE
  5
3DD
100
AcDbEntity
  8
0
100
AcDbLine
 62
7
  6
CONTINUOUS
 10
26.0183550186
 20
6.0166124535
 11
26.0183550186
 21
5.5166124535
  0
LINE
  5
3DE
100
AcDbEntity
  8
0
100
AcDbLine
 62
7
  6
CONTINUOUS
 10
26.2683550186
 20
10.0166124535
 11
26.2683550186
 21
9.7666124535
  0
LINE
  5
3DF
100
AcDbEntity
  8
0
100
AcDbLine
 62
7
  6
CONTINUOUS
 10
26.2683550186
 20
16.5166124535
 11
26.2683550186
 21
16.7666124535
  0
LINE
  5
3E0
100
AcDbEntity
  8
0
100
AcDbLine
 62
7
  6
CONTINUOUS
 10
26.7683550186
 20
16.7666124535
 11
26.7683550186
 21
16.5166124535
  0
LINE
  5
3E1
100
AcDbEntity
  8
0
100
AcDbLine
 62
7
  6
CONTINUOUS
 10
26.7683550186
 20
9.7666124535
 11
26.7683550186
 21
10.0166124535
  0
LINE
  5
3E2
100
AcDbEntity
  8
0
100
AcDbLine
 62
7
  6
CONTINUOUS
 10
27.2683550186
 20
10.0166124535
 11
27.2683550186
 21
9.7666124535
  0
LINE
  5
3E3
100
AcDbEntity
  8
0
100
AcDbLine
 62
7
  6
CONTINUOUS
 10
27.2683550186
 20
16.5166124535
 11
27.2683550186
 21
16.7666124535
  0
LINE
  5
3E4
100
AcDbEntity
  8
0
100
AcDbLine
 62
7
  6
CONTINUOUS
 10
27.7683550186
 20
16.7666124535
 11
27.7683550186
 21
16.5166124535
  0
LINE
  5
3E5
100
AcDbEntity
  8
0
100
AcDbLine
 62
7
  6
CONTINUOUS
 10
27.7683550186
 20
9.7666124535
 11
27.7683550186
 21
10.0166124535
  0
LINE
  5
3E6
100
AcDbEntity
  8
0
100
AcDbLine
 62
7
  6
CONTINUOUS
 10
28.0183550186
 20
10.5166124535
 11
28.0183550186
 21
11.0166124535
  0
LINE
  5
3E7
100
AcDbEntity
  8
0
100
AcDbLine
 62
7
  6
CONTINUOUS
 10
28.0183550186
 20
11.5166124535
 11
28.0183550186
 21
12.0166124535
  0
LINE
  5
3E8
100
AcDbEntity
  8
0
100
AcDbLine
 62
7
  6
CONTINUOUS
 10
28.0183550186
 20
12.5166124535
 11
28.0183550186
 21
13.0166124535
  0
LINE
  5
3E9
100
AcDbEntity
  8
0
100
AcDbLine
 62
7
  6
CONTINUOUS
 10
28.0183550186
 20
13.5166124535
 11
28.0183550186
 21
14.0166124535
  0
LINE
  5
3EA
100
AcDbEntity
  8
0
100
AcDbLine
 62
7
  6
CONTINUOUS
 10
28.0183550186
 20
14.5166124535
 11
28.0183550186
 21
15.0166124535
  0
LINE
  5
3EB
100
AcDbEntity
  8
0
100
AcDbLine
 62
7
  6
CONTINUOUS
 10
28.0183550186
 20
15.5166124535
 11
28.0183550186
 21
16.0166124535
  0
LINE
  5
3EC
100
AcDbEntity
  8
0
100
AcDbLine
 62
7
  6
CONTINUOUS
 10
28.2683550186
 20
16.5166124535
 11
28.2683550186
 21
16.0166124535
  0
LINE
  5
3ED
100
AcDbEntity
  8
0
100
AcDbLine
 62
7
  6
CONTINUOUS
 10
28.2683550186
 20
15.5166124535
 11
28.2683550186
 21
15.0166124535
  0
LINE
  5
3EE
100
AcDbEntity
  8
0
100
AcDbLine
 62
7
  6
CONTINUOUS
 10
28.2683550186
 20
14.5166124535
 11
28.2683550186
 21
14.0166124535
  0
LINE
  5
3EF
100
AcDbEntity
  8
0
100
AcDbLine
 62
7
  6
CONTINUOUS
 10
28.2683550186
 20
13.5166124535
 11
28.2683550186
 21
13.0166124535
  0
LINE
  5
3F0
100
AcDbEntity
  8
0
100
AcDbLine
 62
7
  6
CONTINUOUS
 10
28.2683550186
 20
12.5166124535
 11
28.2683550186
 21
12.0166124535
  0
LINE
  5
3F1
100
AcDbEntity
  8
0
100
AcDbLine
 62
7
  6
CONTINUOUS
 10
28.2683550186
 20
11.5166124535
 11
28.2683550186
 21
11.0166124535
  0
LINE
  5
3F2
100
AcDbEntity
  8
0
100
AcDbLine
 62
7
  6
CONTINUOUS
 10
28.2683550186
 20
10.5166124535
 11
28.2683550186
 21
10.0166124535
  0
CIRCLE
  5
3F3
100
AcDbEntity
  8
DEFAULT_2
100
AcDbCircle
 62
8
  6
HIDDEN
 10
12.6833550186
 20
10.6657605608
 40
0.056
  0
CIRCLE
  5
3F4
100
AcDbEntity
  8
DEFAULT_2
100
AcDbCircle
 62
8
  6
HIDDEN
 10
9.8533550186
 20
10.6657605608
 40
0.056
  0
CIRCLE
  5
3F5
100
AcDbEntity
  8
02___PRT_ALL_AXES
100
AcDbCircle
 62
7
  6
CONTINUOUS
 10
9.8533550186
 20
10.6657605608
 40
0.0445
  0
CIRCLE
  5
3F6
100
AcDbEntity
  8
02___PRT_ALL_AXES
100
AcDbCircle
 62
7
  6
CONTINUOUS
 10
12.6833550186
 20
10.6657605608
 40
0.0445
  0
ARC
  5
3F7
100
AcDbEntity
  8
0
100
AcDbCircle
 62
7
  6
CONTINUOUS
 10
11.2683550186
 20
13.1166124535
 40
2.75
100
AcDbArc
 50
236.4462439013
 51
303.5537560987
  0
ARC
  5
3F8
100
AcDbEntity
  8
0
100
AcDbCircle
 62
7
  6
CONTINUOUS
 10
11.2683550186
 20
13.1166124535
 40
2.65
100
AcDbArc
 50
305.0
 51
235.0
  0
CIRCLE
  5
3F9
100
AcDbEntity
  8
DEFAULT_2
100
AcDbCircle
 62
8
  6
HIDDEN
 10
8.4383550186
 20
13.1166124535
 40
0.056
  0
CIRCLE
  5
3FA
100
AcDbEntity
  8
DEFAULT_2
100
AcDbCircle
 62
8
  6
HIDDEN
 10
9.8533550186
 20
15.5674643462
 40
0.056
  0
CIRCLE
  5
3FB
100
AcDbEntity
  8
DEFAULT_2
100
AcDbCircle
 62
8
  6
HIDDEN
 10
12.6833550186
 20
15.5674643462
 40
0.056
  0
CIRCLE
  5
3FC
100
AcDbEntity
  8
DEFAULT_2
100
AcDbCircle
 62
8
  6
HIDDEN
 10
14.0983550186
 20
13.1166124535
 40
0.056
  0
CIRCLE
  5
3FD
100
AcDbEntity
  8
02___PRT_ALL_AXES
100
AcDbCircle
 62
7
  6
CONTINUOUS
 10
14.0983550186
 20
13.1166124535
 40
0.0445
  0
CIRCLE
  5
3FE
100
AcDbEntity
  8
02___PRT_ALL_AXES
100
AcDbCircle
 62
7
  6
CONTINUOUS
 10
12.6833550186
 20
15.5674643462
 40
0.0445
  0
CIRCLE
  5
3FF
100
AcDbEntity
  8
02___PRT_ALL_AXES
100
AcDbCircle
 62
7
  6
CONTINUOUS
 10
9.8533550186
 20
15.5674643462
 40
0.0445
  0
CIRCLE
  5
400
100
AcDbEntity
  8
02___PRT_ALL_AXES
100
AcDbCircle
 62
7
  6
CONTINUOUS
 10
8.4383550186
 20
13.1166124535
 40
0.0445
  0
CIRCLE
  5
401
100
AcDbEntity
  8
02___PRT_ALL_AXES
100
AcDbCircle
 62
7
  6
CONTINUOUS
 10
17.8183550186
 20
12.9166124535
 40
0.058
  0
CIRCLE
  5
402
100
AcDbEntity
  8
02___PRT_ALL_AXES
100
AcDbCircle
 62
7
  6
CONTINUOUS
 10
19.2382107344
 20
10.9073502143
 40
0.058
  0
CIRCLE
  5
403
100
AcDbEntity
  8
02___PRT_ALL_AXES
100
AcDbCircle
 62
7
  6
CONTINUOUS
 10
18.8484993027
 20
11.1323502143
 40
0.058
  0
CIRCLE
  5
404
100
AcDbEntity
  8
02___PRT_ALL_AXES
100
AcDbCircle
 62
7
  6
CONTINUOUS
 10
21.6882107344
 20
11.1323502143
 40
0.058
  0
CIRCLE
  5
405
100
AcDbEntity
  8
02___PRT_ALL_AXES
100
AcDbCircle
 62
7
  6
CONTINUOUS
 10
21.2984993027
 20
10.9073502143
 40
0.058
  0
CIRCLE
  5
406
100
AcDbEntity
  8
02___PRT_ALL_AXES
100
AcDbCircle
 62
7
  6
CONTINUOUS
 10
22.7183550186
 20
12.9166124535
 40
0.058
  0
CIRCLE
  5
407
100
AcDbEntity
  8
DEFAULT_2
100
AcDbCircle
 62
8
  6
HIDDEN
 10
20.2683550186
 20
12.5166124535
 40
0.056
  0
CIRCLE
  5
408
100
AcDbEntity
  8
02___PRT_ALL_AXES
100
AcDbCircle
 62
7
  6
CONTINUOUS
 10
20.2683550186
 20
12.5166124535
 40
0.0445
  0
CIRCLE
  5
409
100
AcDbEntity
  8
02___PRT_ALL_AXES
100
AcDbCircle
 62
7
  6
CONTINUOUS
 10
20.2683550186
 20
12.1416124535
 40
0.0445
  0
CIRCLE
  5
40A
100
AcDbEntity
  8
02___PRT_ALL_AXES
100
AcDbCircle
 62
7
  6
CONTINUOUS
 10
17.8183550186
 20
13.3666124535
 40
0.058
  0
CIRCLE
  5
40B
100
AcDbEntity
  8
DEFAULT_2
100
AcDbCircle
 62
8
  6
HIDDEN
 10
19.6433550186
 20
13.1416124535
 40
0.056
  0
CIRCLE
  5
40C
100
AcDbEntity
  8
02___PRT_ALL_AXES
100
AcDbCircle
 62
7
  6
CONTINUOUS
 10
19.6433550186
 20
13.1416124535
 40
0.0445
  0
CIRCLE
  5
40D
100
AcDbEntity
  8
02___PRT_ALL_AXES
100
AcDbCircle
 62
7
  6
CONTINUOUS
 10
19.2683550186
 20
13.1416124535
 40
0.0445
  0
CIRCLE
  5
40E
100
AcDbEntity
  8
02___PRT_ALL_AXES
100
AcDbCircle
 62
7
  6
CONTINUOUS
 10
18.8484993027
 20
15.1508746928
 40
0.058
  0
CIRCLE
  5
40F
100
AcDbEntity
  8
02___PRT_ALL_AXES
100
AcDbCircle
 62
7
  6
CONTINUOUS
 10
19.2382107344
 20
15.3758746928
 40
0.058
  0
CIRCLE
  5
410
100
AcDbEntity
  8
0
100
AcDbCircle
 62
7
  6
CONTINUOUS
 10
20.2683550186
 20
13.1416124535
 40
0.5
  0
CIRCLE
  5
411
100
AcDbEntity
  8
02___PRT_ALL_AXES
100
AcDbCircle
 62
7
  6
CONTINUOUS
 10
22.7183550186
 20
13.3666124535
 40
0.058
  0
CIRCLE
  5
412
100
AcDbEntity
  8
DEFAULT_2
100
AcDbCircle
 62
8
  6
HIDDEN
 10
20.2683550186
 20
13.7666124535
 40
0.056
  0
CIRCLE
  5
413
100
AcDbEntity
  8
DEFAULT_2
100
AcDbCircle
 62
8
  6
HIDDEN
 10
20.8933550186
 20
13.1416124535
 40
0.056
  0
CIRCLE
  5
414
100
AcDbEntity
  8
02___PRT_ALL_AXES
100
AcDbCircle
 62
7
  6
CONTINUOUS
 10
20.8933550186
 20
13.1416124535
 40
0.0445
  0
CIRCLE
  5
415
100
AcDbEntity
  8
02___PRT_ALL_AXES
100
AcDbCircle
 62
7
  6
CONTINUOUS
 10
20.2683550186
 20
13.7666124535
 40
0.0445
  0
CIRCLE
  5
416
100
AcDbEntity
  8
02___PRT_ALL_AXES
100
AcDbCircle
 62
7
  6
CONTINUOUS
 10
20.2683550186
 20
14.1416124535
 40
0.0445
  0
CIRCLE
  5
417
100
AcDbEntity
  8
02___PRT_ALL_AXES
100
AcDbCircle
 62
7
  6
CONTINUOUS
 10
21.2683550186
 20
13.1416124535
 40
0.0445
  0
CIRCLE
  5
418
100
AcDbEntity
  8
02___PRT_ALL_AXES
100
AcDbCircle
 62
7
  6
CONTINUOUS
 10
21.2984993027
 20
15.3758746928
 40
0.058
  0
CIRCLE
  5
419
100
AcDbEntity
  8
02___PRT_ALL_AXES
100
AcDbCircle
 62
7
  6
CONTINUOUS
 10
21.6882107344
 20
15.1508746928
 40
0.058
  0
ENDSEC
  0
SECTION
  2
OBJECTS
  0
DICTIONARY
  5
C
100
AcDbDictionary
280
0
281
1
  3
ACAD_GROUP
350
D
  3
ACAD_MLINESTYLE
350
17
  3
ACAD_LAYOUT
350
1A
  3
ACAD_PLOTSETTINGS
350
19
  3
ACAD_PLOTSTYLENAME
350
E
  0
DICTIONARY
  5
D
102
{ACAD_REACTORS
330
C
102
}
100
AcDbDictionary
280
0
281
1
  0
ACDBDICTIONARYWDFLT
  5
E
102
{ACAD_REACTORS
330
C
102
}
100
AcDbDictionary
281
1
  3
Normal
350
F
100
AcDbDictionaryWithDefault
340
F
  0
DICTIONARY
  5
17
102
{ACAD_REACTORS
330
C
102
}
100
AcDbDictionary
280
0
281
1
  3
Standard
350
18
  0
DICTIONARY
  5
19
102
{ACAD_REACTORS
330
C
102
}
100
AcDbDictionary
281
1
  0
DICTIONARY
  5
1A
102
{ACAD_REACTORS
330
C
102
}
100
AcDbDictionary
281
1
  3
Model
350
41A
  3
Layout1
350
41B
  0
ACDBPLACEHOLDER
  5
F
102
{ACAD_REACTORS
330
E
102
}
  0
MLINESTYLE
  5
18
102
{ACAD_REACTORS
330
17
102
}
100
AcDbMlineStyle
  2
STANDARD
 70
0
  3

 62
256
 51
90.0
 52
90.0
 71
2
 49
0.5
 62
256
  6
BYLAYER
 49
-0.5
 62
256
  6
BYLAYER
  0
LAYOUT
  5
41A
102
{ACAD_REACTORS
330
1A
102
}
100
AcDbPlotSettings
  1

  2
none_device
  4
ANSI_D_(34.00_x_22.00_Inches)
  6

 40
0.0
 41
0.0
 42
0.0
 43
0.0
 44
863.6
 45
558.8
 46
0.0
 47
0.0
 48
0.0
 49
0.0
140
0.0
141
0.0
142
1.0
143
1.0
 70
1024
 72
0
 73
0
 74
0
  7

 75
0
147
1.0
148
0.0
149
0.0
100
AcDbLayout
  1
Model
 70
0
 71
0
 10
0.0
 20
0.0
 11
34.0
 21
22.0
 12
0.0
 22
0.0
 32
0.0
 14
0.0
 24
0.0
 34
0.0
 15
0.0
 25
0.0
 35
0.0
146
0.0
 13
0.0
 23
0.0
 33
0.0
 16
1.0
 26
0.0
 36
0.0
 17
0.0
 27
1.0
 37
0.0
 76
0
330
216
345
0
346
0
  0
LAYOUT
  5
41B
102
{ACAD_REACTORS
330
1A
102
}
100
AcDbPlotSettings
  1

  2
none_device
  4
ANSI_D_(34.00_x_22.00_Inches)
  6

 40
0.0
 41
0.0
 42
0.0
 43
0.0
 44
863.6
 45
558.8
 46
0.0
 47
0.0
 48
0.0
 49
0.0
140
0.0
141
0.0
142
1.0
143
1.0
 70
0
 72
0
 73
0
 74
0
  7

 75
0
147
1.0
148
0.0
149
0.0
100
AcDbLayout
  1
Layout1
 70
0
 71
1
 10
0.0
 20
0.0
 11
34.0
 21
22.0
 12
0.0
 22
0.0
 32
0.0
 14
0.0
 24
0.0
 34
0.0
 15
0.0
 25
0.0
 35
0.0
146
0.0
 13
0.0
 23
0.0
 33
0.0
 16
1.0
 26
0.0
 36
0.0
 17
0.0
 27
1.0
 37
0.0
 76
0
330
217
345
0
346
0
  0
ENDSEC
  0
EOF
